<svg xmlns="http://www.w3.org/2000/svg" data-name="Layer 1" viewBox="0 0 3500 2000"><defs><clipPath id="a"><rect width="1496.17" height="1009.82" x="756.71" y="112.11" fill="#cce6ff" rx="23.92"/></clipPath><clipPath id="b"><circle cx="1336.11" cy="1051.26" r="273.99" fill="#cce6ff" opacity=".61" transform="rotate(-45 1336.114 1051.254)"/></clipPath></defs><rect width="1496.17" height="1009.82" x="756.71" y="112.11" fill="#cce6ff" rx="23.92"/><g clip-path="url(#a)"><rect width="1637.59" height="167.63" x="683.1" y="54.7" fill="#102a54"/></g><circle cx="835.9" cy="171.9" r="20.47" fill="#3c94f8"/><circle cx="910.24" cy="171.9" r="20.47" fill="#fff"/><circle cx="984.57" cy="171.9" r="20.47" fill="#fff"/><path fill="#102a54" d="M2205.27,1112.26H780.42A37.47,37.47,0,0,1,743,1074.83V136.34A37.48,37.48,0,0,1,780.42,98.9H2205.27a37.48,37.48,0,0,1,37.43,37.44v938.49A37.47,37.47,0,0,1,2205.27,1112.26ZM780.42,102.45a33.93,33.93,0,0,0-33.89,33.89v938.49a33.93,33.93,0,0,0,33.89,33.89H2205.27a33.93,33.93,0,0,0,33.89-33.89V136.34a33.93,33.93,0,0,0-33.89-33.89Z"/><rect width="402.81" height="711.48" x="823.21" y="312.7" fill="#f4f7fd" rx="12.32"/><rect width="156.6" height="199.74" x="847.55" y="345.45" fill="#cce6ff" rx="5.66"/><circle cx="1044.16" cy="357.96" r="12.51" fill="#cce6ff"/><path fill="#cce6ff" d="M1202,353.47H1081.93a2.68,2.68,0,0,1-2.68-2.67h0a2.67,2.67,0,0,1,2.68-2.67H1202a2.67,2.67,0,0,1,2.67,2.67h0A2.68,2.68,0,0,1,1202,353.47Z"/><path fill="#cce6ff" d="M1202,367.8H1081.93a2.68,2.68,0,0,1-2.68-2.67h0a2.68,2.68,0,0,1,2.68-2.68H1202a2.68,2.68,0,0,1,2.67,2.68h0A2.68,2.68,0,0,1,1202,367.8Z"/><path fill="#cce6ff" d="M1202,382.12H1081.93a2.67,2.67,0,0,1-2.68-2.67h0a2.68,2.68,0,0,1,2.68-2.67H1202a2.68,2.68,0,0,1,2.67,2.67h0A2.67,2.67,0,0,1,1202,382.12Z"/><circle cx="1044.16" cy="409.99" r="12.51" fill="#cce6ff" transform="rotate(-79.3 1044.233 409.972)"/><path fill="#cce6ff" d="M1202,405.5H1081.93a2.67,2.67,0,0,1-2.68-2.67h0a2.68,2.68,0,0,1,2.68-2.67H1202a2.68,2.68,0,0,1,2.67,2.67h0A2.67,2.67,0,0,1,1202,405.5Z"/><path fill="#cce6ff" d="M1202,419.83H1081.93a2.68,2.68,0,0,1-2.68-2.67h0a2.67,2.67,0,0,1,2.68-2.67H1202a2.67,2.67,0,0,1,2.67,2.67h0A2.68,2.68,0,0,1,1202,419.83Z"/><path fill="#cce6ff" d="M1202,434.16H1081.93a2.68,2.68,0,0,1-2.68-2.67h0a2.68,2.68,0,0,1,2.68-2.68H1202a2.68,2.68,0,0,1,2.67,2.68h0A2.68,2.68,0,0,1,1202,434.16Z"/><circle cx="1044.16" cy="462.03" r="12.51" fill="#cce6ff" transform="rotate(-79.3 1044.236 462.01)"/><path fill="#cce6ff" d="M1202,457.54H1081.93a2.68,2.68,0,0,1-2.68-2.68h0a2.68,2.68,0,0,1,2.68-2.67H1202a2.68,2.68,0,0,1,2.67,2.67h0A2.68,2.68,0,0,1,1202,457.54Z"/><path fill="#cce6ff" d="M1202,471.86H1081.93a2.67,2.67,0,0,1-2.68-2.67h0a2.68,2.68,0,0,1,2.68-2.67H1202a2.68,2.68,0,0,1,2.67,2.67h0A2.67,2.67,0,0,1,1202,471.86Z"/><path fill="#cce6ff" d="M1202,486.19H1081.93a2.68,2.68,0,0,1-2.68-2.67h0a2.67,2.67,0,0,1,2.68-2.67H1202a2.67,2.67,0,0,1,2.67,2.67h0A2.68,2.68,0,0,1,1202,486.19Z"/><circle cx="1044.16" cy="514.06" r="12.51" fill="#cce6ff" transform="rotate(-30.53 1044.16 514.063)"/><path fill="#cce6ff" d="M1202,509.57H1081.93a2.68,2.68,0,0,1-2.68-2.67h0a2.67,2.67,0,0,1,2.68-2.67H1202a2.67,2.67,0,0,1,2.67,2.67h0A2.68,2.68,0,0,1,1202,509.57Z"/><path fill="#cce6ff" d="M1202,523.9H1081.93a2.68,2.68,0,0,1-2.68-2.68h0a2.68,2.68,0,0,1,2.68-2.67H1202a2.68,2.68,0,0,1,2.67,2.67h0A2.68,2.68,0,0,1,1202,523.9Z"/><path fill="#cce6ff" d="M1202,538.22H1081.93a2.67,2.67,0,0,1-2.68-2.67h0a2.68,2.68,0,0,1,2.68-2.67H1202a2.68,2.68,0,0,1,2.67,2.67h0A2.67,2.67,0,0,1,1202,538.22Z"/><rect width="156.6" height="199.74" x="846.06" y="566.16" fill="#cce6ff" rx="5.66"/><circle cx="1042.67" cy="578.67" r="12.51" fill="#cce6ff"/><path fill="#cce6ff" d="M1200.5,574.18H1080.44a2.67,2.67,0,0,1-2.67-2.67h0a2.66,2.66,0,0,1,2.67-2.67H1200.5a2.67,2.67,0,0,1,2.67,2.67h0A2.68,2.68,0,0,1,1200.5,574.18Z"/><path fill="#cce6ff" d="M1200.5,588.51H1080.44a2.67,2.67,0,0,1-2.67-2.67h0a2.67,2.67,0,0,1,2.67-2.68H1200.5a2.68,2.68,0,0,1,2.67,2.68h0A2.68,2.68,0,0,1,1200.5,588.51Z"/><path fill="#cce6ff" d="M1200.5,602.83H1080.44a2.66,2.66,0,0,1-2.67-2.67h0a2.67,2.67,0,0,1,2.67-2.67H1200.5a2.68,2.68,0,0,1,2.67,2.67h0A2.67,2.67,0,0,1,1200.5,602.83Z"/><circle cx="1042.67" cy="630.71" r="12.51" fill="#cce6ff" transform="rotate(-76.78 1042.65 630.71)"/><path fill="#cce6ff" d="M1200.5,626.21H1080.44a2.66,2.66,0,0,1-2.67-2.67h0a2.67,2.67,0,0,1,2.67-2.67H1200.5a2.68,2.68,0,0,1,2.67,2.67h0A2.67,2.67,0,0,1,1200.5,626.21Z"/><path fill="#cce6ff" d="M1200.5,640.54H1080.44a2.67,2.67,0,0,1-2.67-2.67h0a2.66,2.66,0,0,1,2.67-2.67H1200.5a2.67,2.67,0,0,1,2.67,2.67h0A2.68,2.68,0,0,1,1200.5,640.54Z"/><rect width="125.41" height="5.35" x="1077.77" y="649.52" fill="#cce6ff" rx="2.26"/><circle cx="1042.67" cy="682.74" r="12.51" fill="#cce6ff" transform="rotate(-76.78 1042.649 682.738)"/><path fill="#cce6ff" d="M1200.5,678.25H1080.44a2.67,2.67,0,0,1-2.67-2.68h0a2.67,2.67,0,0,1,2.67-2.67H1200.5a2.68,2.68,0,0,1,2.67,2.67h0A2.68,2.68,0,0,1,1200.5,678.25Z"/><path fill="#cce6ff" d="M1200.5,692.57H1080.44a2.66,2.66,0,0,1-2.67-2.67h0a2.67,2.67,0,0,1,2.67-2.67H1200.5a2.68,2.68,0,0,1,2.67,2.67h0A2.67,2.67,0,0,1,1200.5,692.57Z"/><path fill="#cce6ff" d="M1200.5,706.9H1080.44a2.67,2.67,0,0,1-2.67-2.67h0a2.66,2.66,0,0,1,2.67-2.67H1200.5a2.67,2.67,0,0,1,2.67,2.67h0A2.68,2.68,0,0,1,1200.5,706.9Z"/><circle cx="1042.67" cy="734.77" r="12.51" fill="#cce6ff" transform="rotate(-45 1042.672 734.771)"/><path fill="#cce6ff" d="M1200.5,730.28H1080.44a2.67,2.67,0,0,1-2.67-2.67h0a2.66,2.66,0,0,1,2.67-2.67H1200.5a2.67,2.67,0,0,1,2.67,2.67h0A2.68,2.68,0,0,1,1200.5,730.28Z"/><path fill="#cce6ff" d="M1200.5,744.61H1080.44a2.67,2.67,0,0,1-2.67-2.68h0a2.67,2.67,0,0,1,2.67-2.67H1200.5a2.68,2.68,0,0,1,2.67,2.67h0A2.68,2.68,0,0,1,1200.5,744.61Z"/><path fill="#cce6ff" d="M1200.5,758.93H1080.44a2.66,2.66,0,0,1-2.67-2.67h0a2.67,2.67,0,0,1,2.67-2.67H1200.5a2.68,2.68,0,0,1,2.67,2.67h0A2.67,2.67,0,0,1,1200.5,758.93Z"/><rect width="156.6" height="199.74" x="844.57" y="786.87" fill="#cce6ff" rx="5.66"/><circle cx="1041.18" cy="799.38" r="12.51" fill="#cce6ff"/><path fill="#cce6ff" d="M1199,794.89H1079a2.66,2.66,0,0,1-2.67-2.67h0a2.66,2.66,0,0,1,2.67-2.67H1199a2.66,2.66,0,0,1,2.67,2.67h0A2.66,2.66,0,0,1,1199,794.89Z"/><path fill="#cce6ff" d="M1199,809.22H1079a2.67,2.67,0,0,1-2.67-2.67h0a2.67,2.67,0,0,1,2.67-2.68H1199a2.67,2.67,0,0,1,2.67,2.68h0A2.67,2.67,0,0,1,1199,809.22Z"/><path fill="#cce6ff" d="M1199,823.55H1079a2.67,2.67,0,0,1-2.67-2.68h0a2.67,2.67,0,0,1,2.67-2.67H1199a2.67,2.67,0,0,1,2.67,2.67h0A2.67,2.67,0,0,1,1199,823.55Z"/><circle cx="1041.18" cy="851.42" r="12.51" fill="#cce6ff" transform="rotate(-76.78 1041.156 851.417)"/><rect width="125.41" height="5.35" x="1076.28" y="841.58" fill="#cce6ff" rx="2.26"/><path fill="#cce6ff" d="M1199,861.25H1079a2.67,2.67,0,0,1-2.67-2.67h0a2.66,2.66,0,0,1,2.67-2.67H1199a2.66,2.66,0,0,1,2.67,2.67h0A2.67,2.67,0,0,1,1199,861.25Z"/><path fill="#cce6ff" d="M1199,875.58H1079a2.67,2.67,0,0,1-2.67-2.67h0a2.67,2.67,0,0,1,2.67-2.68H1199a2.67,2.67,0,0,1,2.67,2.68h0A2.67,2.67,0,0,1,1199,875.58Z"/><circle cx="1041.18" cy="903.45" r="12.51" fill="#cce6ff" transform="rotate(-76.78 1041.156 903.445)"/><path fill="#cce6ff" d="M1199,899H1079a2.67,2.67,0,0,1-2.67-2.67h0a2.67,2.67,0,0,1,2.67-2.68H1199a2.67,2.67,0,0,1,2.67,2.68h0A2.67,2.67,0,0,1,1199,899Z"/><path fill="#cce6ff" d="M1199,913.28H1079a2.66,2.66,0,0,1-2.67-2.67h0a2.67,2.67,0,0,1,2.67-2.67H1199a2.67,2.67,0,0,1,2.67,2.67h0A2.66,2.66,0,0,1,1199,913.28Z"/><path fill="#cce6ff" d="M1199,927.61H1079a2.67,2.67,0,0,1-2.67-2.67h0a2.66,2.66,0,0,1,2.67-2.67H1199a2.66,2.66,0,0,1,2.67,2.67h0A2.67,2.67,0,0,1,1199,927.61Z"/><circle cx="1041.18" cy="955.48" r="12.51" fill="#cce6ff" transform="rotate(-45 1041.182 955.478)"/><path fill="#cce6ff" d="M1199,951H1079a2.67,2.67,0,0,1-2.67-2.67h0a2.66,2.66,0,0,1,2.67-2.67H1199a2.66,2.66,0,0,1,2.67,2.67h0A2.67,2.67,0,0,1,1199,951Z"/><path fill="#cce6ff" d="M1199,965.32H1079a2.67,2.67,0,0,1-2.67-2.68h0A2.67,2.67,0,0,1,1079,960H1199a2.67,2.67,0,0,1,2.67,2.67h0A2.67,2.67,0,0,1,1199,965.32Z"/><path fill="#cce6ff" d="M1199,979.64H1079a2.66,2.66,0,0,1-2.67-2.67h0a2.67,2.67,0,0,1,2.67-2.67H1199a2.67,2.67,0,0,1,2.67,2.67h0A2.66,2.66,0,0,1,1199,979.64Z"/><rect width="107.99" height="87.07" x="870.67" y="361.97" fill="#f4f7fd" rx="4.72"/><rect width="107.99" height="7.16" x="870.67" y="462.03" fill="#f4f7fd" rx="2.81"/><rect width="107.99" height="7.16" x="870.67" y="477.26" fill="#f4f7fd" rx="2.81"/><rect width="107.99" height="7.16" x="870.67" y="492.5" fill="#f4f7fd" rx="2.81"/><rect width="107.99" height="7.16" x="870.67" y="507.74" fill="#f4f7fd" rx="2.81"/><rect width="107.99" height="7.16" x="870.67" y="522.97" fill="#f4f7fd" rx="2.81"/><rect width="107.99" height="87.07" x="870.67" y="581.95" fill="#f4f7fd" rx="4.72"/><rect width="107.99" height="7.16" x="870.67" y="682.01" fill="#f4f7fd" rx="2.81"/><rect width="107.99" height="7.16" x="870.67" y="697.24" fill="#f4f7fd" rx="2.81"/><rect width="107.99" height="7.16" x="870.67" y="712.48" fill="#f4f7fd" rx="2.81"/><rect width="107.99" height="7.16" x="870.67" y="727.71" fill="#f4f7fd" rx="2.81"/><rect width="107.99" height="7.16" x="870.67" y="742.95" fill="#f4f7fd" rx="2.81"/><rect width="107.99" height="87.07" x="870.67" y="801.93" fill="#f4f7fd" rx="4.72"/><rect width="107.99" height="7.16" x="870.67" y="901.99" fill="#f4f7fd" rx="2.81"/><rect width="107.99" height="7.16" x="870.67" y="917.22" fill="#f4f7fd" rx="2.81"/><rect width="107.99" height="7.16" x="870.67" y="932.46" fill="#f4f7fd" rx="2.81"/><rect width="107.99" height="7.16" x="870.67" y="947.69" fill="#f4f7fd" rx="2.81"/><rect width="107.99" height="7.16" x="870.67" y="962.93" fill="#f4f7fd" rx="2.81"/><rect width="402.81" height="711.48" x="1759.67" y="312.7" fill="#f4f7fd" rx="12.32"/><path fill="#cce6ff" d="M2126.89,345.48H2010a3.86,3.86,0,0,1-3.86-3.86h0a3.86,3.86,0,0,1,3.86-3.87h116.91a3.86,3.86,0,0,1,3.86,3.87h0A3.86,3.86,0,0,1,2126.89,345.48Z"/><path fill="#cce6ff" d="M2126.89,363.15H2010a3.86,3.86,0,0,1-3.86-3.87h0a3.86,3.86,0,0,1,3.86-3.86h116.91a3.86,3.86,0,0,1,3.86,3.86h0A3.86,3.86,0,0,1,2126.89,363.15Z"/><path fill="#cce6ff" d="M2126.89,380.82H2010a3.86,3.86,0,0,1-3.86-3.87h0a3.86,3.86,0,0,1,3.86-3.86h116.91a3.86,3.86,0,0,1,3.86,3.86h0A3.86,3.86,0,0,1,2126.89,380.82Z"/><path fill="#cce6ff" d="M2126.89,398.48H2010a3.86,3.86,0,0,1-3.86-3.86h0a3.86,3.86,0,0,1,3.86-3.86h116.91a3.86,3.86,0,0,1,3.86,3.86h0A3.86,3.86,0,0,1,2126.89,398.48Z"/><path fill="#cce6ff" d="M2126.89,416.15H2010a3.86,3.86,0,0,1-3.86-3.86h0a3.86,3.86,0,0,1,3.86-3.86h116.91a3.86,3.86,0,0,1,3.86,3.86h0A3.86,3.86,0,0,1,2126.89,416.15Z"/><path fill="#cce6ff" d="M2126.89,433.82H2010a3.86,3.86,0,0,1-3.86-3.86h0a3.86,3.86,0,0,1,3.86-3.87h116.91a3.86,3.86,0,0,1,3.86,3.87h0A3.86,3.86,0,0,1,2126.89,433.82Z"/><path fill="#cce6ff" d="M2126.89,451.49H2010a3.86,3.86,0,0,1-3.86-3.87h0a3.86,3.86,0,0,1,3.86-3.86h116.91a3.86,3.86,0,0,1,3.86,3.86h0A3.86,3.86,0,0,1,2126.89,451.49Z"/><path fill="#cce6ff" d="M2126.89,787.41H2010a3.86,3.86,0,0,1-3.86-3.86h0a3.86,3.86,0,0,1,3.86-3.86h116.91a3.86,3.86,0,0,1,3.86,3.86h0A3.86,3.86,0,0,1,2126.89,787.41Z"/><path fill="#cce6ff" d="M2126.89,805.08H2010a3.86,3.86,0,0,1-3.86-3.86h0a3.86,3.86,0,0,1,3.86-3.87h116.91a3.86,3.86,0,0,1,3.86,3.87h0A3.86,3.86,0,0,1,2126.89,805.08Z"/><path fill="#cce6ff" d="M2126.89,822.75H2010a3.86,3.86,0,0,1-3.86-3.87h0A3.86,3.86,0,0,1,2010,815h116.91a3.86,3.86,0,0,1,3.86,3.86h0A3.86,3.86,0,0,1,2126.89,822.75Z"/><path fill="#cce6ff" d="M2126.89,840.42H2010a3.86,3.86,0,0,1-3.86-3.87h0a3.86,3.86,0,0,1,3.86-3.86h116.91a3.86,3.86,0,0,1,3.86,3.86h0A3.86,3.86,0,0,1,2126.89,840.42Z"/><path fill="#cce6ff" d="M2126.89,858.08H2010a3.86,3.86,0,0,1-3.86-3.86h0a3.86,3.86,0,0,1,3.86-3.86h116.91a3.86,3.86,0,0,1,3.86,3.86h0A3.86,3.86,0,0,1,2126.89,858.08Z"/><path fill="#cce6ff" d="M2126.89,875.75H2010a3.86,3.86,0,0,1-3.86-3.86h0A3.86,3.86,0,0,1,2010,868h116.91a3.86,3.86,0,0,1,3.86,3.86h0A3.86,3.86,0,0,1,2126.89,875.75Z"/><path fill="#cce6ff" d="M2126.89,893.42H2010a3.86,3.86,0,0,1-3.86-3.86h0a3.86,3.86,0,0,1,3.86-3.87h116.91a3.86,3.86,0,0,1,3.86,3.87h0A3.86,3.86,0,0,1,2126.89,893.42Z"/><path fill="#cce6ff" d="M2126.89,913.25H2010a3.86,3.86,0,0,1-3.86-3.86h0a3.86,3.86,0,0,1,3.86-3.86h116.91a3.86,3.86,0,0,1,3.86,3.86h0A3.86,3.86,0,0,1,2126.89,913.25Z"/><path fill="#cce6ff" d="M2126.89,930.92H2010a3.86,3.86,0,0,1-3.86-3.86h0a3.86,3.86,0,0,1,3.86-3.87h116.91a3.86,3.86,0,0,1,3.86,3.87h0A3.86,3.86,0,0,1,2126.89,930.92Z"/><path fill="#cce6ff" d="M2126.89,948.59H2010a3.86,3.86,0,0,1-3.86-3.86h0a3.86,3.86,0,0,1,3.86-3.87h116.91a3.86,3.86,0,0,1,3.86,3.87h0A3.86,3.86,0,0,1,2126.89,948.59Z"/><path fill="#cce6ff" d="M2126.89,966.26H2010a3.86,3.86,0,0,1-3.86-3.87h0a3.86,3.86,0,0,1,3.86-3.86h116.91a3.86,3.86,0,0,1,3.86,3.86h0A3.86,3.86,0,0,1,2126.89,966.26Z"/><path fill="#cce6ff" d="M2126.89,983.92H2010a3.86,3.86,0,0,1-3.86-3.86h0a3.86,3.86,0,0,1,3.86-3.86h116.91a3.86,3.86,0,0,1,3.86,3.86h0A3.86,3.86,0,0,1,2126.89,983.92Z"/><path fill="#cce6ff" d="M2126.89,1001.59H2010a3.86,3.86,0,0,1-3.86-3.86h0a3.86,3.86,0,0,1,3.86-3.86h116.91a3.86,3.86,0,0,1,3.86,3.86h0A3.86,3.86,0,0,1,2126.89,1001.59Z"/><path fill="#cce6ff" d="M2126.89,469.15H2010a3.86,3.86,0,0,1-3.86-3.86h0a3.86,3.86,0,0,1,3.86-3.86h116.91a3.86,3.86,0,0,1,3.86,3.86h0A3.86,3.86,0,0,1,2126.89,469.15Z"/><path fill="#cce6ff" d="M2126.89,486.82H2010a3.86,3.86,0,0,1-3.86-3.86h0a3.86,3.86,0,0,1,3.86-3.86h116.91a3.86,3.86,0,0,1,3.86,3.86h0A3.86,3.86,0,0,1,2126.89,486.82Z"/><path fill="#cce6ff" d="M2126.89,504.49H2010a3.86,3.86,0,0,1-3.86-3.86h0a3.86,3.86,0,0,1,3.86-3.87h116.91a3.86,3.86,0,0,1,3.86,3.87h0A3.86,3.86,0,0,1,2126.89,504.49Z"/><path fill="#cce6ff" d="M2126.89,522.16H2010a3.86,3.86,0,0,1-3.86-3.86h0a3.86,3.86,0,0,1,3.86-3.87h116.91a3.86,3.86,0,0,1,3.86,3.87h0A3.86,3.86,0,0,1,2126.89,522.16Z"/><path fill="#cce6ff" d="M2126.89,539.83H2010a3.86,3.86,0,0,1-3.86-3.87h0a3.86,3.86,0,0,1,3.86-3.86h116.91a3.86,3.86,0,0,1,3.86,3.86h0A3.86,3.86,0,0,1,2126.89,539.83Z"/><rect width="124.64" height="7.73" x="2006.12" y="549.77" fill="#cce6ff" rx="3.27"/><path fill="#cce6ff" d="M2126.89,575.16H2010a3.86,3.86,0,0,1-3.86-3.86h0a3.86,3.86,0,0,1,3.86-3.86h116.91a3.86,3.86,0,0,1,3.86,3.86h0A3.86,3.86,0,0,1,2126.89,575.16Z"/><rect width="124.64" height="7.73" x="2006.12" y="585.1" fill="#cce6ff" rx="3.27"/><path fill="#cce6ff" d="M2126.89,610.5H2010a3.86,3.86,0,0,1-3.86-3.87h0a3.86,3.86,0,0,1,3.86-3.86h116.91a3.86,3.86,0,0,1,3.86,3.86h0A3.86,3.86,0,0,1,2126.89,610.5Z"/><path fill="#cce6ff" d="M1968.87,650.52H1795.26a3.86,3.86,0,0,1-3.86-3.87h0a3.86,3.86,0,0,1,3.86-3.86h173.61a3.86,3.86,0,0,1,3.86,3.86h0A3.86,3.86,0,0,1,1968.87,650.52Z"/><path fill="#cce6ff" d="M1968.87,668.18H1795.26a3.86,3.86,0,0,1-3.86-3.86h0a3.86,3.86,0,0,1,3.86-3.86h173.61a3.86,3.86,0,0,1,3.86,3.86h0A3.86,3.86,0,0,1,1968.87,668.18Z"/><path fill="#cce6ff" d="M1968.87,685.85H1795.26a3.86,3.86,0,0,1-3.86-3.86h0a3.86,3.86,0,0,1,3.86-3.86h173.61a3.86,3.86,0,0,1,3.86,3.86h0A3.86,3.86,0,0,1,1968.87,685.85Z"/><path fill="#cce6ff" d="M1968.87,703.52H1795.26a3.86,3.86,0,0,1-3.86-3.86h0a3.86,3.86,0,0,1,3.86-3.87h173.61a3.86,3.86,0,0,1,3.86,3.87h0A3.86,3.86,0,0,1,1968.87,703.52Z"/><path fill="#cce6ff" d="M1968.87,721.19H1795.26a3.86,3.86,0,0,1-3.86-3.87h0a3.86,3.86,0,0,1,3.86-3.86h173.61a3.86,3.86,0,0,1,3.86,3.86h0A3.86,3.86,0,0,1,1968.87,721.19Z"/><path fill="#cce6ff" d="M1968.87,738.85H1795.26a3.86,3.86,0,0,1-3.86-3.86h0a3.86,3.86,0,0,1,3.86-3.86h173.61a3.86,3.86,0,0,1,3.86,3.86h0A3.86,3.86,0,0,1,1968.87,738.85Z"/><path fill="#cce6ff" d="M1968.87,756.52H1795.26a3.86,3.86,0,0,1-3.86-3.86h0a3.86,3.86,0,0,1,3.86-3.86h173.61a3.86,3.86,0,0,1,3.86,3.86h0A3.86,3.86,0,0,1,1968.87,756.52Z"/><path fill="#cce6ff" d="M1968.87,774.19H1795.26a3.86,3.86,0,0,1-3.86-3.86h0a3.86,3.86,0,0,1,3.86-3.87h173.61a3.86,3.86,0,0,1,3.86,3.87h0A3.86,3.86,0,0,1,1968.87,774.19Z"/><path fill="#cce6ff" d="M1968.87,791.86H1795.26a3.86,3.86,0,0,1-3.86-3.86h0a3.86,3.86,0,0,1,3.86-3.87h173.61a3.86,3.86,0,0,1,3.86,3.87h0A3.86,3.86,0,0,1,1968.87,791.86Z"/><path fill="#cce6ff" d="M1968.87,809.53H1795.26a3.86,3.86,0,0,1-3.86-3.87h0a3.86,3.86,0,0,1,3.86-3.86h173.61a3.86,3.86,0,0,1,3.86,3.86h0A3.86,3.86,0,0,1,1968.87,809.53Z"/><path fill="#cce6ff" d="M1968.87,827.19H1795.26a3.86,3.86,0,0,1-3.86-3.86h0a3.86,3.86,0,0,1,3.86-3.86h173.61a3.86,3.86,0,0,1,3.86,3.86h0A3.86,3.86,0,0,1,1968.87,827.19Z"/><path fill="#cce6ff" d="M1968.87,844.86H1795.26a3.86,3.86,0,0,1-3.86-3.86h0a3.86,3.86,0,0,1,3.86-3.86h173.61a3.86,3.86,0,0,1,3.86,3.86h0A3.86,3.86,0,0,1,1968.87,844.86Z"/><path fill="#cce6ff" d="M1968.87,862.53H1795.26a3.86,3.86,0,0,1-3.86-3.86h0a3.86,3.86,0,0,1,3.86-3.87h173.61a3.86,3.86,0,0,1,3.86,3.87h0A3.86,3.86,0,0,1,1968.87,862.53Z"/><path fill="#cce6ff" d="M1968.87,880.2H1795.26a3.86,3.86,0,0,1-3.86-3.87h0a3.86,3.86,0,0,1,3.86-3.86h173.61a3.86,3.86,0,0,1,3.86,3.86h0A3.86,3.86,0,0,1,1968.87,880.2Z"/><path fill="#cce6ff" d="M1968.87,897.87H1795.26a3.86,3.86,0,0,1-3.86-3.87h0a3.86,3.86,0,0,1,3.86-3.86h173.61a3.86,3.86,0,0,1,3.86,3.86h0A3.86,3.86,0,0,1,1968.87,897.87Z"/><path fill="#cce6ff" d="M1968.87,915.53H1795.26a3.86,3.86,0,0,1-3.86-3.86h0a3.86,3.86,0,0,1,3.86-3.86h173.61a3.86,3.86,0,0,1,3.86,3.86h0A3.86,3.86,0,0,1,1968.87,915.53Z"/><path fill="#cce6ff" d="M1968.87,932H1795.26a3.86,3.86,0,0,1-3.86-3.86h0a3.86,3.86,0,0,1,3.86-3.86h173.61a3.86,3.86,0,0,1,3.86,3.86h0A3.86,3.86,0,0,1,1968.87,932Z"/><path fill="#cce6ff" d="M1968.87,949.7H1795.26a3.86,3.86,0,0,1-3.86-3.86h0a3.86,3.86,0,0,1,3.86-3.86h173.61a3.86,3.86,0,0,1,3.86,3.86h0A3.86,3.86,0,0,1,1968.87,949.7Z"/><path fill="#cce6ff" d="M1968.87,967.37H1795.26a3.86,3.86,0,0,1-3.86-3.86h0a3.86,3.86,0,0,1,3.86-3.87h173.61a3.86,3.86,0,0,1,3.86,3.87h0A3.86,3.86,0,0,1,1968.87,967.37Z"/><path fill="#cce6ff" d="M1968.87,985H1795.26a3.86,3.86,0,0,1-3.86-3.86h0a3.86,3.86,0,0,1,3.86-3.87h173.61a3.86,3.86,0,0,1,3.86,3.87h0A3.86,3.86,0,0,1,1968.87,985Z"/><path fill="#cce6ff" d="M1968.87,1002.71H1795.26a3.86,3.86,0,0,1-3.86-3.87h0a3.86,3.86,0,0,1,3.86-3.86h173.61a3.86,3.86,0,0,1,3.86,3.86h0A3.86,3.86,0,0,1,1968.87,1002.71Z"/><rect width="124.64" height="115.65" x="2006.12" y="641.82" fill="#cce6ff" rx="2.8"/><rect width="181.33" height="272.74" x="1791.4" y="337.75" fill="#cce6ff" rx="3.78"/><rect width="147.23" height="79.07" x="1808.45" y="354.75" fill="#f4f7fd" rx="2.28"/><rect width="147.23" height="79.07" x="1808.45" y="443.43" fill="#f4f7fd" rx="2.28"/><rect width="69.3" height="65.64" x="1808.45" y="532.1" fill="#f4f7fd" rx="1.98"/><rect width="70.99" height="65.64" x="1884.69" y="532.1" fill="#f4f7fd" rx="2.01"/><rect width="402.81" height="711.48" x="1291.44" y="312.7" fill="#f4f7fd" rx="12.32"/><rect width="158.75" height="158.75" x="1323.37" y="345.48" fill="#cce6ff" rx="5.68"/><rect width="119.66" height="9.64" x="1546.94" y="345.48" fill="#cce6ff" rx="2.97"/><rect width="119.66" height="9.64" x="1546.94" y="362.3" fill="#cce6ff" rx="2.97"/><rect width="119.66" height="9.64" x="1546.94" y="379.13" fill="#cce6ff" rx="2.97"/><rect width="119.66" height="9.64" x="1546.94" y="395.95" fill="#cce6ff" rx="2.97"/><rect width="119.66" height="9.64" x="1546.94" y="412.77" fill="#cce6ff" rx="2.97"/><rect width="119.66" height="9.64" x="1546.94" y="429.6" fill="#cce6ff" rx="2.97"/><rect width="119.66" height="9.64" x="1546.94" y="446.42" fill="#cce6ff" rx="2.97"/><rect width="119.66" height="9.64" x="1546.94" y="463.24" fill="#cce6ff" rx="2.97"/><rect width="119.66" height="9.64" x="1546.94" y="480.06" fill="#cce6ff" rx="2.97"/><rect width="119.66" height="9.64" x="1546.94" y="496.89" fill="#cce6ff" rx="2.97"/><circle cx="1512.43" cy="361.02" r="8.41" fill="#cce6ff"/><circle cx="1512.43" cy="427.16" r="8.41" fill="#cce6ff"/><path fill="#cce6ff" d="M1520.84,493.3a8.42,8.42,0,1,1-8.41-8.41A8.42,8.42,0,0,1,1520.84,493.3Z"/><rect width="343.23" height="19.63" x="1323.37" y="530.14" fill="#cce6ff"/><rect width="343.23" height="19.63" x="1323.37" y="564.18" fill="#cce6ff"/><rect width="180.64" height="19.63" x="1323.37" y="598.22" fill="#cce6ff"/><rect width="343.23" height="11.65" x="1323.37" y="643.21" fill="#cce6ff" rx="2.21"/><rect width="343.23" height="11.65" x="1323.37" y="667.08" fill="#cce6ff" rx="2.21"/><rect width="343.23" height="11.65" x="1323.37" y="690.94" fill="#cce6ff" rx="2.21"/><rect width="343.23" height="11.65" x="1323.37" y="714.8" fill="#cce6ff" rx="2.21"/><rect width="343.23" height="11.65" x="1323.37" y="738.66" fill="#cce6ff" rx="2.21"/><rect width="343.23" height="11.65" x="1323.37" y="762.52" fill="#cce6ff" rx="2.21"/><rect width="173.66" height="11.65" x="1323.37" y="786.38" fill="#cce6ff" rx="1.57"/><rect width="101.59" height="106.93" x="1323.37" y="832.69" fill="#cce6ff" rx="7.93"/><rect width="101.59" height="106.93" x="1444.19" y="832.23" fill="#cce6ff" rx="7.93"/><rect width="101.59" height="106.93" x="1565.01" y="831.77" fill="#cce6ff" rx="7.93"/><rect width="343.23" height="10.12" x="1323.37" y="959.97" fill="#cce6ff" rx="1.3"/><rect width="343.23" height="10.12" x="1323.37" y="978.86" fill="#cce6ff" rx="1.3"/><rect width="205.29" height="10.12" x="1323.37" y="997.76" fill="#cce6ff" rx="1.01"/><rect width="294.25" height="202.08" x="609.59" y="405.86" fill="#3c94f8" rx="11.39"/><path fill="#102a54" d="M685.37,524.57q0,10.62-3.14,16.5-5.84,10.74-22.18,10.73a25.72,25.72,0,0,1-16.11-5.11q-6.69-5.1-6.69-18.18v-6h10.67v6q0,6.86,3.06,10.31t9.53,3.45q9.09,0,11.9-6.22,1.71-3.82,1.71-14.44V465.73h11.25Z"/><path fill="#102a54" d="M771.67,477.71Q780,488.84,780,506.19q0,18.78-9.53,31.23Q759.29,552,738.57,552q-19.35,0-30.43-12.79-9.87-12.33-9.87-31.16,0-17,8.45-29.11,10.85-15.53,32.08-15.53Q761,463.44,771.67,477.71Zm-10,53.45a45.89,45.89,0,0,0,6.7-24.77q0-14.79-7.73-23.82t-21.15-9q-13,0-21.23,8.95T710,508.85q0,13.93,7.05,23.51t22.86,9.57Q755,541.93,761.66,531.16Z"/><path fill="#102a54" d="M793.25,465.73h36.26q14.82,0,21.08,8.79a20.2,20.2,0,0,1,3.68,12q0,7.94-4.51,13a22.14,22.14,0,0,1-6.74,4.91,28.48,28.48,0,0,1,9.65,5.53q5.66,5.49,5.65,15.13a23.29,23.29,0,0,1-5.11,14.67q-7.63,9.81-24.29,9.82H793.25Zm32,35.44c4.85,0,8.61-.66,11.31-2q6.33-3.14,6.34-11.3t-6.75-11.07q-3.81-1.6-11.3-1.6H804.38v26Zm3.84,38.7q10.54,0,15-6a15.15,15.15,0,0,0,2.82-9.25q0-9.12-8.24-12.44a31.45,31.45,0,0,0-11.58-1.77H804.38v29.51Z"/><path fill="#102a54" d="M866.87,657.88a5.46,5.46,0,0,1-4.35-2.17l-40.78-53.24H615.25A15.24,15.24,0,0,1,600,587.25V412.08a15.24,15.24,0,0,1,15.22-15.23H882.6a15.24,15.24,0,0,1,15.22,15.23V587.25a15.24,15.24,0,0,1-15.22,15.22H872.44v49.87a5.45,5.45,0,0,1-3.75,5.24A5.55,5.55,0,0,1,866.87,657.88ZM615.25,400.4a11.69,11.69,0,0,0-11.67,11.68V587.25a11.69,11.69,0,0,0,11.67,11.68H823.49l41.84,54.62a2,2,0,0,0,3.57-1.21V598.93h13.7a11.69,11.69,0,0,0,11.68-11.68V412.08A11.69,11.69,0,0,0,882.6,400.4Z"/><rect width="294.25" height="202.08" x="1230.93" y="50.39" fill="#3c94f8" rx="11.39"/><path fill="#102a54" d="M1306.71,169.11q0,10.62-3.14,16.49-5.83,10.74-22.18,10.73a25.8,25.8,0,0,1-16.11-5.1q-6.69-5.11-6.69-18.18v-6h10.68v6q0,6.84,3.06,10.3t9.52,3.45q9.09,0,11.9-6.22,1.71-3.83,1.72-14.44V110.26h11.24Z"/><path fill="#102a54" d="M1393,122.25q8.32,11.13,8.33,28.48,0,18.78-9.53,31.22-11.19,14.61-31.91,14.61-19.35,0-30.42-12.78-9.88-12.33-9.88-31.17,0-17,8.45-29.11Q1338.91,108,1360.14,108,1382.34,108,1393,122.25Zm-10,53.44a45.87,45.87,0,0,0,6.71-24.76q0-14.81-7.74-23.83t-21.15-9q-13,0-21.23,8.94t-8.22,26.36q0,14,7.05,23.51t22.86,9.57Q1376.3,186.46,1383,175.69Z"/><path fill="#102a54" d="M1414.59,110.26h36.26q14.82,0,21.08,8.79a20.23,20.23,0,0,1,3.68,12q0,7.94-4.51,13a22.08,22.08,0,0,1-6.73,4.91q6.45,2.46,9.64,5.54,5.65,5.48,5.65,15.12a23.25,23.25,0,0,1-5.11,14.67q-7.63,9.83-24.29,9.82h-35.67Zm32,35.44q7.28,0,11.31-2,6.35-3.15,6.34-11.3t-6.75-11.08q-3.8-1.59-11.3-1.6h-20.48v26Zm3.84,38.71q10.55,0,15-6.06a15.12,15.12,0,0,0,2.83-9.24q0-9.13-8.25-12.45a31.66,31.66,0,0,0-11.58-1.77h-22.76v29.52Z"/><path fill="#102a54" d="M1488.21,302.42a5.45,5.45,0,0,1-4.35-2.18L1443.08,247H1236.6a15.24,15.24,0,0,1-15.23-15.23V56.61a15.24,15.24,0,0,1,15.23-15.22h267.34a15.23,15.23,0,0,1,15.22,15.22V231.78A15.24,15.24,0,0,1,1503.94,247h-10.15v49.86a5.48,5.48,0,0,1-3.76,5.25A5.78,5.78,0,0,1,1488.21,302.42ZM1236.6,44.93a11.69,11.69,0,0,0-11.68,11.68V231.78a11.69,11.69,0,0,0,11.68,11.68h208.23l41.84,54.62a2,2,0,0,0,3.57-1.21V243.46h13.7a11.69,11.69,0,0,0,11.68-11.68V56.61a11.69,11.69,0,0,0-11.68-11.68Z"/><rect width="294.25" height="202.08" x="2077.3" y="162.13" fill="#3c94f8" rx="11.39" transform="rotate(180 2224.42 263.165)"/><path fill="#102a54" d="M2170.93,280.84q0,10.62-3.14,16.5-5.84,10.73-22.17,10.73A25.75,25.75,0,0,1,2129.5,303q-6.69-5.1-6.68-18.18v-6h10.67v6q0,6.86,3.06,10.31t9.52,3.45q9.1,0,11.9-6.22,1.72-3.82,1.72-14.44V222h11.24Z"/><path fill="#102a54" d="M2257.24,234q8.33,11.13,8.33,28.48,0,18.78-9.53,31.23-11.19,14.61-31.91,14.61-19.35,0-30.42-12.79-9.89-12.33-9.88-31.16,0-17,8.45-29.11,10.84-15.53,32.08-15.53Q2246.56,219.71,2257.24,234Zm-10,53.45a45.9,45.9,0,0,0,6.71-24.77q0-14.79-7.74-23.82t-21.14-9q-13,0-21.24,8.95t-8.22,26.36q0,13.94,7,23.51t22.86,9.57Q2240.52,298.2,2247.22,287.43Z"/><path fill="#102a54" d="M2278.81,222h36.26q14.82,0,21.09,8.79a20.25,20.25,0,0,1,3.67,12q0,7.93-4.51,13a21.9,21.9,0,0,1-6.73,4.9,28.75,28.75,0,0,1,9.65,5.54q5.64,5.47,5.65,15.13a23.35,23.35,0,0,1-5.11,14.67q-7.65,9.81-24.3,9.82h-35.67Zm32,35.45q7.26,0,11.3-2,6.35-3.13,6.34-11.3t-6.74-11.07q-3.81-1.6-11.31-1.6H2290v26Zm3.83,38.7q10.55,0,15-6.05a15.09,15.09,0,0,0,2.83-9.25q0-9.12-8.24-12.44a31.45,31.45,0,0,0-11.58-1.77H2290v29.51Z"/><path fill="#102a54" d="M2114.27,414.16a5.6,5.6,0,0,1-5.58-5.55V358.74h-10.15a15.24,15.24,0,0,1-15.23-15.22V168.35a15.24,15.24,0,0,1,15.23-15.23h267.34a15.24,15.24,0,0,1,15.22,15.23V343.52a15.24,15.24,0,0,1-15.22,15.22H2159.39L2118.62,412A5.49,5.49,0,0,1,2114.27,414.16Zm-15.73-257.49a11.69,11.69,0,0,0-11.68,11.68V343.52a11.69,11.69,0,0,0,11.68,11.68h13.7v53.41a2,2,0,0,0,3.57,1.21l41.84-54.62h208.23a11.69,11.69,0,0,0,11.68-11.68V168.35a11.69,11.69,0,0,0-11.68-11.68Z"/><path fill="#102a54" d="M1620.64,1204.27a322.87,322.87,0,1,0-479.34,92,16.78,16.78,0,0,0-13.61,8.36L894.8,1707.09a16.8,16.8,0,0,0,6.13,23l63.57,36.79a16.81,16.81,0,0,0,23-6.13l232.89-402.5a16.79,16.79,0,0,0,.46-16,323,323,0,0,0,399.83-138Zm-419.32,80a279.2,279.2,0,1,1,211.84,28.1A277.33,277.33,0,0,1,1201.32,1284.22Z"/><circle cx="1336.11" cy="1051.26" r="273.99" fill="#fff" transform="rotate(-45 1336.114 1051.254)"/><circle cx="1336.11" cy="1051.26" r="273.99" fill="#cce6ff" opacity=".61" transform="rotate(-45 1336.114 1051.254)"/><g clip-path="url(#b)"><polygon fill="#3c94f8" points="1468.08 779.55 1008.96 971.92 1016.27 1104.49 1585.7 881.25 1468.08 779.55" opacity=".26"/><polygon fill="#3c94f8" points="1662.42 898.93 1046.79 1145.43 1102.11 1256.99 1705.11 1020.59 1662.42 898.93" opacity=".18"/><polygon fill="#3c94f8" points="1711.74 1056.67 1096.11 1303.18 1147.01 1361.74 1737.57 1130.27 1711.74 1056.67" opacity=".1"/></g><path fill="#3c94f8" d="M1646.79,1232.61a322.87,322.87,0,1,0-479.34,92,16.79,16.79,0,0,0-13.61,8.35L921,1735.43a16.81,16.81,0,0,0,6.13,23l63.58,36.78a16.78,16.78,0,0,0,23-6.13l232.89-402.49a16.79,16.79,0,0,0,.46-16,323,323,0,0,0,399.83-138Zm-419.32,80a279.21,279.21,0,1,1,211.84,28.09A277.36,277.36,0,0,1,1227.47,1312.56Z" opacity=".14"/><rect width="1146.06" height="231.43" x="1700.62" y="572.52" fill="#f4f7fd" rx="97.98"/><path fill="#102a54" d="M2714.81,802.2H1800.18a119.26,119.26,0,1,1,0-238.52h914.63a119.26,119.26,0,1,1,0,238.52ZM1800.18,570.77a112.17,112.17,0,0,0,0,224.34h914.63a112.17,112.17,0,1,0,0-224.34Z"/><rect width="23.67" height="23.67" x="1802.09" y="666.29" fill="#102a54" rx="5.34"/><rect width="23.67" height="23.67" x="1843.58" y="666.29" fill="#102a54" rx="5.34"/><rect width="23.67" height="23.67" x="1885.08" y="666.29" fill="#102a54" rx="5.34"/><rect width="23.67" height="23.67" x="1926.57" y="666.29" fill="#102a54" rx="5.34"/><rect width="23.67" height="23.67" x="1968.07" y="666.29" fill="#102a54" rx="5.34"/><rect width="23.67" height="23.67" x="2009.57" y="666.29" fill="#102a54" rx="5.34"/><rect width="23.67" height="23.67" x="2051.06" y="666.29" fill="#102a54" rx="5.34"/><rect width="23.67" height="23.67" x="2092.56" y="666.29" fill="#102a54" rx="5.34"/><rect width="23.67" height="23.67" x="2134.05" y="666.29" fill="#102a54" rx="5.34"/><rect width="23.67" height="23.67" x="2175.55" y="666.29" fill="#102a54" rx="5.34"/><rect width="23.67" height="23.67" x="2217.04" y="666.29" fill="#102a54" rx="5.34"/><rect width="23.67" height="23.67" x="2258.54" y="666.29" fill="#102a54" rx="5.34"/><rect width="23.67" height="23.67" x="2300.04" y="666.29" fill="#102a54" rx="5.34"/><rect width="23.67" height="23.67" x="2341.53" y="666.29" fill="#102a54" rx="5.34"/><rect width="23.67" height="23.67" x="2383.03" y="666.29" fill="#102a54" rx="5.34"/><rect width="23.67" height="23.67" x="2424.52" y="666.29" fill="#102a54" rx="5.34"/><rect width="23.67" height="23.67" x="2466.02" y="666.29" fill="#102a54" rx="5.34"/><rect width="23.67" height="23.67" x="2507.52" y="666.29" fill="#102a54" rx="5.34"/><rect width="23.67" height="23.67" x="2549.01" y="666.29" fill="#102a54" rx="5.34"/><rect width="23.67" height="23.67" x="2590.51" y="666.29" fill="#102a54" rx="5.34"/><rect width="23.67" height="23.67" x="2632" y="666.29" fill="#102a54" rx="5.34"/><rect width="23.67" height="23.67" x="2673.5" y="666.29" fill="#102a54" rx="5.34"/><rect width="23.67" height="23.67" x="2715" y="666.29" fill="#102a54" rx="5.34"/><path fill="#102a54" d="M579.76,1803.19H488.2a6.11,6.11,0,0,0-5.85,7.86l40.06,133.78a6.1,6.1,0,0,0,5.85,4.35h77.46a6.1,6.1,0,0,0,5.85-4.35l40.06-133.78a6.11,6.11,0,0,0-5.85-7.86Z"/><path fill="#6cb597" d="M631.51,1738c2.53-6.66,5.78-13.3,11.23-17.88s13.55-6.6,19.85-3.29c4.62,2.44,9.42,7.6,14,5.05,2.85-1.58,3.47-5.34,3.67-8.59.63-10.59.5-22.52,8-30s19.47-7.19,29.59-4.61c4.78,1.22,10.07,2.82,14.42.5a14.9,14.9,0,0,0,5.36-5.69c4.85-7.93,7.94-18.08,16.43-21.87,13.66-6.09,29.59,9.32,43.64,4.19,5.49-2,10.2-7.07,16-6.52a12.35,12.35,0,0,1,7.47,4c6.77,7.1,6.84,19.56.1,26.69-9,9.47-25.42,8.15-34.49,17.52-8.71,9-8,25.35-18.63,32-9,5.59-21,1-31,4.53-8,2.82-13.2,10.29-18.37,17s-11.74,13.54-20.19,14.06c-4.44.28-8.86-1.27-13.29-.87-12.74,1.16-19.84,17.27-32.49,19.18-8.49,1.28-15.76-4.38-21.63-9.77-2.34-2.14-4.52-4.56-5.36-7.69-1-3.75-.17-7.83.67-11.53A122.39,122.39,0,0,1,631.51,1738Z"/><path fill="#6cb597" d="M540.15,1711.6c-6.94-5.15-11.15-15.1-7-22.71,2-3.71,5.56-6.27,8.37-9.4s5-7.62,3.31-11.49a14.11,14.11,0,0,0-4-4.71c-5.69-4.92-11.45-10-15-16.66s-4.59-15.13-.63-21.53c3-4.83,8.21-7.7,12.75-11.11s8.84-8.3,8.46-14c-.47-7.07-8.09-13.49-5.26-20,2.94-6.72,14.65-6.35,16.56-13.43,1-3.51-1.17-7-2-10.58-1.94-7.88,3.39-16.83,11.25-18.86s16.87,3.2,19,11c1.47,5.42,0,11.45,2.13,16.65,2.79,6.74,10.77,10,14.27,16.36,6.43,11.78-5.26,25.73-4.28,39.11,1,14.15,16.16,26.19,12.26,39.83-1.52,5.35-5.82,9.58-7.3,14.93-1.78,6.39.71,13.07,2.5,19.45s2.63,14-1.65,19c-3.17,3.74-8.32,5.06-13.17,5.81a87,87,0,0,1-39.8-2.59A35.23,35.23,0,0,1,540.15,1711.6Z"/><path fill="#102a54" d="M566.68,1836.84a1.74,1.74,0,0,1-.9-.26,1.72,1.72,0,0,1-.55-2.36,222,222,0,0,1,45.52-52.55c19.67-16.57,42.18-29.66,64-42.32l147.84-86a1.72,1.72,0,0,1,2.34.62,1.74,1.74,0,0,1-.62,2.35l-147.84,86c-21.64,12.58-44,25.59-63.47,42A218.8,218.8,0,0,0,568.14,1836,1.72,1.72,0,0,1,566.68,1836.84Z"/><path fill="#102a54" d="M571.43,1829.54a1.71,1.71,0,0,1-1.71-1.66c-2.53-86-.64-204,1.39-287.86a1.71,1.71,0,0,1,3.42.08c-2,83.83-3.92,201.78-1.39,287.68a1.71,1.71,0,0,1-1.66,1.76Z"/><path fill="#6cb597" d="M486.19,1783.18c-10-1.08-20.12-7.7-21.91-17.58-1.43-7.88,1.8-18-4.75-22.65-2.29-1.62-5.23-2-8-2.1-10.16-.48-21.29.85-29.58-5-12.07-8.55-10.87-26.28-11.85-41-.25-3.79-.89-7.88-3.63-10.51-2.92-2.8-7.34-3.11-11.29-4-14.41-3.26-25.66-17.19-25.82-32-.05-4.52.95-9.26,4-12.63a17,17,0,0,1,7.8-4.68,26.09,26.09,0,0,1,26.71,7.65c4,4.62,6.32,10.63,10.84,14.75,12.78,11.65,33.77,2.08,50.2,7.46a28.62,28.62,0,0,1,18.66,20.53c1.84,8.18.06,17.29,4.06,24.66,6.88,12.66,24.92,12,38.21,17.52,3.2,1.34,6.33,3.23,8.14,6.19a17.31,17.31,0,0,1,2.11,7.69,45.62,45.62,0,0,1-8.93,30.46c-2.86,3.9-6.69,8.41-11.23,10.39-3.44,1.51-7.49,1-11.12,1.84C501.22,1782,494,1784,486.19,1783.18Z"/><path fill="#102a54" d="M562.39,1839.29a1.71,1.71,0,0,1-1.52-.9c-23.65-44.23-74.84-102.65-99.44-130.73-7.38-8.41-15-17.11-23.89-24.13-7.3-5.77-15.72-10.63-23.86-15.33-14.94-8.62-30.39-17.53-39.58-32.44A1.72,1.72,0,1,1,377,1634c8.73,14.18,23.13,22.48,38.37,31.28,8.25,4.75,16.78,9.67,24.28,15.6,9.13,7.21,16.86,16,24.33,24.57,24.69,28.17,76.06,86.78,99.89,131.36a1.7,1.7,0,0,1-.7,2.32A1.66,1.66,0,0,1,562.39,1839.29Z"/><path fill="#3c94f8" d="M2644.43,996.93s-77.81,145.86-90.3,157.62-188.8,60.29-188.8,60.29l7,25.55s218.41,5.07,229.53,0,75.24-62,75.24-62Z"/><polygon fill="#ffc0b1" points="2536.98 1871.88 2542.31 1903.92 2582.86 1903.92 2580.53 1867.22 2536.98 1871.88"/><polygon fill="#ffc0b1" points="2391.15 1865.41 2393.37 1909.06 2429.56 1906.26 2434.94 1865.74 2391.15 1865.41"/><path fill="#0c203f" d="M2704.69,1337.88s-257.52,86.2-295.91,124.59-23.13,404.47-23.13,404.47h55.07l77.54-301.24s312.13-6.94,345.87-66.21c44.5-78.18,10.52-180,10.52-180Z"/><path fill="#102a54" d="M2720.48,1358.17s-214.15,124.73-241.34,166.14,53.9,348,53.9,348l50.17-5.36,12.88-270.66s277.63-64,296.8-123.22c25.29-78.11-23.93-162.78-23.93-162.78Z"/><path fill="#0c203f" d="M2435.62,1897.78s-32.79,9.11-48,0L2322,1932.09a27,27,0,0,0-14.47,23.88v.71h129.22a6.39,6.39,0,0,0,6.33-7.31Z"/><path fill="#102a54" d="M2584.65,1897.78s-32.78,9.11-48,0L2471,1932.09a26.93,26.93,0,0,0-14.47,23.88v.71h129.22a6.4,6.4,0,0,0,6.33-7.31Z"/><path fill="#ffc0b1" d="M2707.57,957.93l-24.73-100.74h0c0-19-3.75-41.69-13.2-68.31a31.94,31.94,0,0,0-43.39-18.25l-47.94,22a29.93,29.93,0,0,0-16.63,34.32c4,16.53,8.86,38.06,10.4,52.46,1.34,12.58,4.82,27.25,13.12,38.14,14.52,19.07,40.1,25.55,61.15,15.9l6,65.37Z"/><path fill="#102a54" d="M2589.08,873.06a6.08,6.08,0,0,1-6-6.67l3.82-39.13a1.38,1.38,0,1,1,2.74.26l-3.82,39.14a3.33,3.33,0,0,0,3.88,3.59l11.91-2.09a1.39,1.39,0,0,1,1.6,1.12,1.38,1.38,0,0,1-1.12,1.6L2590.14,873A5.51,5.51,0,0,1,2589.08,873.06Z"/><path fill="#fff" d="M2618.17,873s-14.55,13.26-33.19,18C2585,890.94,2612,907.46,2618.17,873Z"/><path fill="#102a54" d="M2595.36,888.74a1.38,1.38,0,0,1-.53-2.65,68.93,68.93,0,0,0,23.38-16,1.38,1.38,0,1,1,2.08,1.81,70.41,70.41,0,0,1-24.41,16.73A1.37,1.37,0,0,1,2595.36,888.74Z"/><path fill="#102a54" d="M2579.09,834.76c0,3.28-2.14,5.94-4.78,5.94s-4.79-2.66-4.79-5.94,2.14-5.94,4.79-5.94S2579.09,831.48,2579.09,834.76Z"/><ellipse cx="2606.37" cy="825.02" fill="#102a54" rx="4.79" ry="5.94"/><path fill="#102a54" d="M2560.82,813.22s53,4.44,76.17-13.31c0,0,.49,35.23,8.87,40.79s34.1-.09,42.12,35.5c0,0,14.11-38.81,7.7-84.19s-35-67.08-62.64-64.61S2503.55,767.71,2560.82,813.22Z"/><ellipse cx="2661.09" cy="828.82" fill="#ffc0b1" rx="24.63" ry="14.44" transform="rotate(-76.55 2660.917 828.89)"/><path fill="#102a54" d="M2654.63,839a1.38,1.38,0,0,1-1.38-1.31c-.75-15.61,11.74-28.38,12.27-28.91a1.38,1.38,0,0,1,2,1.94c-.13.12-12.16,12.46-11.47,26.84a1.38,1.38,0,0,1-1.31,1.44Z"/><path fill="#3c94f8" d="M2707.61,943s153.44,64.74,181.49,399c0,0-66.16,40.11-228,16.82,0,0,4.33-36.11,2.82-50.95s-49.61-241.53-19.48-311Z"/><path fill="#102a54" d="M2646.35,934.79a1.38,1.38,0,0,1-.54-2.65c.22-.09,15.5-6.88,24.26-30.75a1.38,1.38,0,0,1,1.77-.82,1.37,1.37,0,0,1,.82,1.77c-9.23,25.12-25.1,32.06-25.78,32.34A1.23,1.23,0,0,1,2646.35,934.79Z"/><path fill="#3c94f8" d="M2703.66,1020.93s-48.21,123.36-62.5,142.18S2409,1217.33,2409,1217.33l12.88,35.42s223.44,12.88,250.7,0,88.44-56.88,105.61-119.13S2757.91,993,2703.66,1020.93Z"/><path fill="#102a54" d="M2594.91,1259.87c-72.11,0-167.09-5.4-173.1-5.74a1.38,1.38,0,1,1,.16-2.76c2.23.13,223.4,12.71,250,.13,23.11-10.91,87-53.44,104.87-118.25a1.38,1.38,0,0,1,2.66.74c-18.16,65.81-82.92,108.94-106.35,120C2663.84,1258.41,2632.48,1259.87,2594.91,1259.87Z"/><path fill="#102a54" d="M2409,1218.71a1.38,1.38,0,0,1-.22-2.74c75.17-12.22,220.24-39.17,231.27-53.7,14-18.44,61.83-140.61,62.31-141.84a1.38,1.38,0,0,1,2.57,1c-2,5.05-48.44,123.76-62.68,142.51-14.45,19-224.11,53.3-233,54.75A.82.82,0,0,1,2409,1218.71Z"/><path fill="#102a54" d="M2646.35,1156a1.39,1.39,0,0,1-1.38-1.32c0-1-4.55-97.06,0-133.92a1.38,1.38,0,0,1,2.74.34c-4.54,36.63,0,132.49,0,133.45a1.38,1.38,0,0,1-1.32,1.44Z"/><path fill="#ffc0b1" d="M2413.05,1223.28s-26.32-6.1-37.77-1.6c-4.13,1.62-50.54,39.08-50.54,39.08h68.57l26.53-13.66Z"/><path fill="#ffc0b1" d="M2366.74,1220s-21.91-1.65-29,0-43.55,18.31-43.55,20.37,3.7,4.91,8.54,3.77,45.83-12.3,45.83-12.3-23.34,11.45-26.76,16.29a76.31,76.31,0,0,0-6.54,12.61h43l14.08-20.37Z"/><path fill="#102a54" d="M2326.55,1261.94a1.13,1.13,0,0,1-.36-.06,1.17,1.17,0,0,1-.77-1.48,22.82,22.82,0,0,1,5.53-8.47c4-4,35.5-25.64,36.84-26.55a1.18,1.18,0,0,1,1.34,1.94c-.33.23-32.65,22.42-36.51,26.28a20.78,20.78,0,0,0-4.95,7.51A1.17,1.17,0,0,1,2326.55,1261.94Z"/><polygon fill="#102a54" points="2762.75 1582.27 2672.59 1956.68 2680.08 1956.68 2794.93 1580.27 2762.75 1582.27"/><polygon fill="#102a54" points="2889.4 1582.27 2979.55 1956.68 2972.07 1956.68 2857.22 1580.27 2889.4 1582.27"/><path fill="#7fc0ff" d="M2683.93,1567.08s132.37-66.64,195.43-166.31c33.08-52.29,36.94-189,64.25-191.12s52.5,42,60.9,90.31,8.4,233.91-52.5,267.12-271.52,47.91-285.93,41.61S2646.87,1588.48,2683.93,1567.08Z"/><path fill="#7fc0ff" d="M2742,1298.14H1805.41a10.69,10.69,0,0,1-10.69-10.68h0a10.7,10.7,0,0,1,10.69-10.69H2742a10.69,10.69,0,0,1,10.68,10.69h0A10.68,10.68,0,0,1,2742,1298.14Z"/><polygon fill="#7fc0ff" points="1860.25 1956.68 1843.71 1956.68 1971.06 1298.14 1987.6 1298.14 1860.25 1956.68"/><polygon fill="#7fc0ff" points="2687.12 1956.68 2703.66 1956.68 2576.3 1298.14 2559.76 1298.14 2687.12 1956.68"/><path fill="#102a54" d="M2146,1260.76,2037.8,1008.2a7.09,7.09,0,0,0-6.51-4.3h0a7.09,7.09,0,0,0-6.51,9.88l112.7,263H2405a8,8,0,0,0,8-8h0a8,8,0,0,0-8-8Z"/><path fill="#102a54" d="M3509.31,1958.61H-9.31a4.72,4.72,0,0,1-4.73-4.72,4.73,4.73,0,0,1,4.73-4.73H3509.31a4.73,4.73,0,1,1,0,9.45Z"/><path fill="#80c0ff" d="M1461.55,1042.56a120.41,120.41,0,1,0-199.75,90.55,79.58,79.58,0,0,1,59.16-71.83,45.5,45.5,0,1,1,40.37,0,79.56,79.56,0,0,1,59.16,71.83A120.09,120.09,0,0,0,1461.55,1042.56Z"/><path fill="#3c94f8" d="M1361.33,1061.28a45.5,45.5,0,1,0-40.37,0,79.58,79.58,0,0,0-59.16,71.83,120.38,120.38,0,0,0,158.69,0A79.56,79.56,0,0,0,1361.33,1061.28Z"/><path fill="#80c0ff" d="M2639.52,241.42A41.8,41.8,0,0,0,2593.1,278a41.79,41.79,0,1,0-83-9.82,42.87,42.87,0,0,0-.19,7.83c.89,69.29,71.89,97.51,71.89,97.51s75.62-10.86,92.66-78a41.78,41.78,0,0,0-34.94-54.08Z"/></svg>