<svg xmlns="http://www.w3.org/2000/svg" enable-background="new 0 0 600 500" viewBox="0 0 600 500"><path fill="#d2e4ff" d="M544.4 415.5c32.5-74.9-14.4-113.1-24.3-140.9-9.9-27.8 61.1-197.1-120.2-209.8-85.5-6-91 29.1-127.6 22.2-30.4-5.8-71.3-33.6-100.2-22.8-40.8 15.2-64.5 44.2-61.3 73.9 2.7 24.8 19.9 47.8 16.4 72.5-3.4 24.2-25.5 41.4-46.5 55.1-21 13.7-25.7 28.1-33.8 51.2-8 22.7 1.3 48.4 17.4 66.7.6.7 1.2 1.3 1.8 2 18.2 19.7 44 30.5 70.8 30.4l407.5-.5z" opacity=".3"/><path fill="#c6e2fa" d="M398.9 75.5h-36.5c-.2 0-.4-.2-.4-.4s.2-.4.4-.4h36.5c.2 0 .4.2.4.4s-.2.4-.4.4zM398.9 93.5h-36.5c-.2 0-.4-.2-.4-.4s.2-.4.4-.4h36.5c.2 0 .4.2.4.4s-.2.4-.4.4zM392.3 84.5h-51.6c-.2 0-.4-.2-.4-.4s.2-.4.4-.4h51.6c.2 0 .4.2.4.4s-.2.4-.4.4z"/><path fill="#c6e2fa" d="M369.9 75.5c-.2 0-.4-.2-.4-.4v-7.7c0-.2.2-.4.4-.4s.4.2.4.4v7.7c0 .2-.1.4-.4.4zM382.8 84.5c-.2 0-.4-.2-.4-.4v-9c0-.2.2-.4.4-.4s.4.2.4.4v9c-.1.2-.2.4-.4.4zM373 93.2c-.2 0-.4-.2-.4-.4v-8.7c0-.2.2-.4.4-.4s.4.2.4.4v8.7c0 .3-.2.4-.4.4z"/><path fill="#060405" d="M399.1 110.8v283.4c0 11.5-9.4 20.9-20.9 20.9H219.9c-11.6 0-20.9-9.4-20.9-20.9V110.8c0-11.6 9.4-20.9 20.9-20.9h158.3c11.5 0 20.9 9.3 20.9 20.9z"/><path fill="#fff" d="M219.9 406.4c-6.8 0-12.3-5.5-12.3-12.3V110.8c0-6.8 5.5-12.3 12.3-12.3h158.3c6.8 0 12.3 5.5 12.3 12.3v283.4c0 6.8-5.5 12.3-12.3 12.3H219.9z"/><path d="M399.1 127.6v22.8h-49.8c-2.3 1.7-5.2 2.7-8.2 2.7-3.9 0-7.4-1.6-9.9-4.1-2.5-2.5-4.1-6.1-4.1-10 0-3.9 1.6-7.4 4.1-9.9 2.5-2.5 6.1-4.1 9.9-4.1 3.1 0 5.9 1 8.2 2.7h49.8z" opacity=".05"/><path fill="#060405" d="m339.4 96.6-5.1 12.2c-.7 1.6-2.2 2.6-3.9 2.6h-62.7c-1.7 0-3.2-1-3.9-2.6l-5.1-12.2h80.7z"/><path fill="#fff" d="M319.4 104.8h-32.2c-1.3 0-2.3-1-2.3-2.3v-.4c0-1.3 1-2.3 2.3-2.3h32.2c1.3 0 2.3 1 2.3 2.3v.4c0 1.2-1 2.3-2.3 2.3z"/><circle cx="278.5" cy="102.3" r="3.3" fill="#fff"/><circle cx="255.9" cy="169.6" r="35.7" fill="#6193f6"/><path fill="#fff" d="M262.9 153.2s4.8 14 4.8 16.9c0 6.4-6.7 4.2-6.7 4.2l-6.2-.4-3.3-1.8-1.8-3.4s-.9-7.3-.6-7.5c.3-.2 2.1-9 2.4-9.3.3-.3 4.2-.6 4.6-.5.4.1 6.8 1.8 6.8 1.8z"/><path fill="#efc102" d="M271.8 195.8s-5.4-15.2-15.9-14.6c-10.5.6-13.3 14.6-13.3 14.6s13.4 7.7 29.2 0z"/><path fill="#fff" d="M257.4 175.1c.2.3 2.1 8.9.4 10.1-1 .7-2.8.6-4.2.4-1.3-.2-2.3-1.1-2.6-2.3l-.6-8.2h7z"/><path fill="#060405" d="M253.1 157.4s-.8 13 2.8 13.8c3.6.8 4.9-3.2 7.5-2.3s4.3 1.2 4.3 1.2 1.1 5.9-3.4 7.5c-4.5 1.6-12.7.3-14.2-2.1s-5.5-29.2 2.3-31.2 3.3 2.9 3.3 2.9 6.8-5.7 7.5-3.4c.7 2.3-.9 4.2-.9 4.2s7.5-.4 3.4 4.3c-4.3 4.6-11.5 2.4-12.6 5.1z"/><path fill="#060405" d="M261.5 166.7c-.5 0-.7-.4-.7-.7 0-.3.3-.6.7-.6.1-.2.1-.3 0-.5s-.2-.3-.4-.7c-.5-.9-.8-2-.7-3.1 0-.3.3-.6.7-.6.3 0 .6.3.6.7-.1.8.1 1.7.5 2.4.2.3.4.6.5.9.2.5.2.9.1 1.3-.3.6-.8.9-1.3.9z"/><ellipse cx="257.7" cy="161" fill="#060405" rx=".7" ry=".9" transform="rotate(-6.975 257.651 160.933)"/><ellipse cx="263.5" cy="159.9" fill="#060405" rx=".7" ry="1" transform="rotate(-6.975 263.383 159.798)"/><path fill="#fff" d="M261.8 173.9c-.3 0-.6 0-1-.1-.3-.1-.5-.4-.5-.7.1-.3.4-.5.7-.5 1 .2 2.2-.1 2.9-.8.2-.2.6-.2.9 0 .2.3.2.6 0 .9-.7.8-1.8 1.2-3 1.2z"/><path fill="#d2e4ff" d="M304.7 168.5h68.9v3.2h-68.9zM304.7 178.2h68.9v3.2h-68.9zM304.7 188h68.9v3.2h-68.9zM304.7 197.7h16v3.2h-16zM334.8 197.7h11.9v3.2h-11.9zM355.7 197.7h7.5v3.2h-7.5z"/><path fill="#bdd6ff" d="M259.8 370.2h-26.1c-2.7 0-4.9-2.2-4.9-4.9v-26.1c0-2.7 2.2-4.9 4.9-4.9h26.1c2.7 0 4.9 2.2 4.9 4.9v26.1c0 2.7-2.2 4.9-4.9 4.9zM272.5 337.2h78.8v5.6h-78.8zM272.5 350.3h96.7v2.8h-96.7zM272.5 357.2h96.7v2.8h-96.7zM272.5 364H312v2.8h-39.5zM318.5 364h6.4v2.8h-6.4zM337.2 364h4.1v2.8h-4.1z"/><path fill="#fff" d="m241.7 359.9-4.2-4.2c-.8-.8-.8-2 0-2.8.8-.8 2-.8 2.8 0l2.9 2.9 11-11c.8-.8 2-.8 2.8 0 .8.8.8 2 0 2.8L244.6 360c-.9.6-2.1.6-2.9-.1z"/><path fill="#d2e4ff" d="M228.9 223.7h53.9v9.9h-53.9zM228.9 245.3h53.9v4.4h-53.9zM228.9 256.2h53.9v4.4h-53.9zM270.1 267.1h12.7v4.4h-12.7zM228.9 267.1h34.3v4.4h-34.3zM228.9 278h53.9v4.4h-53.9zM228.9 288.9h53.9v4.4h-53.9zM249.3 299.8h33.6v4.4h-33.6zM228.9 299.8h11.7v4.4h-11.7zM228.9 310.7h32.6v4.4h-32.6zM270.7 310.7h12.1v4.4h-12.1zM300.7 217.8h5.1V315h-5.1zM320.1 389.5h-33.5c-1.4 0-2.6-1.1-2.6-2.6v-.4c0-1.4 1.1-2.6 2.6-2.6h33.5c1.4 0 2.6 1.1 2.6 2.6v.4c0 1.4-1.2 2.6-2.6 2.6z"/><path d="M399.1 223.7v56.1h-75.9c-2.9 0-5.3-2.4-5.3-5.3V229c0-2.9 2.4-5.3 5.3-5.3h75.9z" opacity=".05"/><path fill="#bdd6ff" d="M440.3 274.9H326.7c-2.7 0-4.9-2.2-4.9-4.9v-46.3c0-2.7 2.2-4.9 4.9-4.9h113.6c2.7 0 4.9 2.2 4.9 4.9V270c0 2.7-2.2 4.9-4.9 4.9z"/><path fill="#fff" d="M344.2 262.7c-8.6 0-15.5-7-15.5-15.5s7-15.5 15.5-15.5c1.9 0 3.5 1.6 3.5 3.5s-1.6 3.5-3.5 3.5c-4.7 0-8.5 3.8-8.5 8.5s3.8 8.5 8.5 8.5 8.5-3.8 8.5-8.5c0-1.9 1.6-3.5 3.5-3.5s3.5 1.6 3.5 3.5c0 8.5-7 15.5-15.5 15.5z"/><path fill="#060405" d="M356.2 250.7c-1.9 0-3.5-1.6-3.5-3.5 0-4.7-3.8-8.5-8.5-8.5-1.9 0-3.5-1.6-3.5-3.5s1.6-3.5 3.5-3.5c8.6 0 15.5 7 15.5 15.5 0 1.9-1.6 3.5-3.5 3.5z"/><path fill="#fff" d="M367.8 236.7h33.5v6.2h-33.5zM367.8 247h67.1v2.5h-67.1zM385.7 252.6h8.2v2.5h-8.2zM367.8 252.6h13.5v2.5h-13.5z"/><path fill="#d2e4ff" d="M372.9 297.4h-48.4c-1 0-1.9-.8-1.9-1.9v-6.4c0-1 .8-1.9 1.9-1.9h48.4c1 0 1.9.8 1.9 1.9v6.4c0 1.1-.9 1.9-1.9 1.9zM326.6 302.7h44.3v2.8h-44.3zM326.6 309.2h44.3v2.8h-44.3zM326.6 315.8H349v2.8h-22.4z"/><path fill="#060405" d="m75.1 425.2 14.4-102.6 17.8 102.6h13.4l5-138.4h-66c-.7 1.6-3.1 18.8-3 35.1.1 35.1 3.7 89.6 5 103.4l13.4-.1z"/><path fill="#ff7545" d="M75.7 427.6v-2.3H61.8c-.2 4.5-.5 13-.6 13h22.7c.7-7.5-8.2-10.7-8.2-10.7z"/><path fill="#060405" d="M83.5 435c.3 1 .4 2.1.3 3.2H61.1s.1-1.3.2-3.2h22.2z"/><path fill="#ff7545" d="M121.2 427.6v-2.3h-13.9c-.2 4.5-.5 13-.6 13h22.7c.7-7.5-8.2-10.7-8.2-10.7z"/><path fill="#060405" d="M129 435c.3 1 .4 2.1.3 3.2h-22.7s.1-1.3.2-3.2H129z"/><path fill="#fff" d="m179.9 224.2.6 2.7c.8 3.6-1.5 7.1-5.2 7.7l-3 .5s-33.4 17-42.9 15.5c-7.7-1.3-18.6-20.5-19.7-21.6l24-15.4 4.8 12.8 30.1-2.3s2.8-8.7 5.4-8.4c2.5.3 1.3 3.9 1.2 4.2l9.8-4.1c1.5-.6 3.1.3 3.4 1.9.2 1-.3 2-1.2 2.5l-7.3 4z"/><path fill="#060405" d="M130.8 251.3c-.5 0-1 0-1.4-.1-6.4-1.1-14.8-13.9-18.4-19.4-.8-1.2-1.4-2.2-1.6-2.3l-.4-.4 25-16 4.9 13 29.4-2.2c.7-2 3.2-8.7 5.8-8.4 1.8.2 2.2 2 1.9 3.8l8.9-3.7c1.8-.7 3.7.4 4 2.3.2 1.2-.4 2.4-1.5 3l-6.8 3.8.5 2.4c.9 3.8-1.6 7.7-5.6 8.3l-2.9.5c-2.1.8-31 15.4-41.8 15.4zm-20.4-22.1c.3.4.7 1 1.3 2 3.5 5.4 11.7 18 17.7 19 9.3 1.5 42.3-15.2 42.6-15.4h.1l3-.5c3.3-.6 5.5-3.8 4.8-7.1l-.7-3.1 7.5-4.1c.7-.4 1.1-1.2 1-2-.2-1.2-1.5-2-2.7-1.5l-10.8 4.5.3-1c.4-1.4.7-3.3-.8-3.5-1.5-.2-3.7 4.6-4.8 8l-.1.3h-.3l-30.5 2.3-4.7-12.6-22.9 14.7z"/><path fill="#efc102" d="M137.8 214.2c-.9 10.6-8.8 16.3-14.6 20.1l-10.1-36.9c4.8 0 23.2 13.9 24.7 16.8z"/><path fill="#efc102" d="M128.2 297.9c0 6.8-71 5.8-72.4-1.2 0 0-7.9-66.2-7.2-71.1 1.5-11.3 4.6-14 7.4-18 1.1-1.7 9.2-8 14.3-9.9 4.2-1.5 13-3.4 17.5-3.5 6.2-.2 29.6 0 34.7 9.7 7.9 15.1 5.7 94 5.7 94z"/><path fill="#fff" d="M94.3 182.3s2.2 8.6 4.7 12.4c1.8 2.9-1.6 8.3-4.8 10-5.2 2.7-15.3-9.5-15.3-9.5l-.4-31.3 15.8 18.4z"/><path fill="#060405" d="m78.4 195.4-.1-.1-.4-32.8 16.8 19.6c.9 3.3 2.8 9.4 4.6 12.3.6 1 .8 2.3.4 3.8-.7 2.7-3 5.7-5.4 6.9-4.5 2.4-12.6-5.7-15.9-9.7zm.9-.5c2.8 3.4 10.7 11.3 14.6 9.3 2.1-1.1 4.2-3.8 4.9-6.3.2-.9.4-2.1-.2-3-2.3-3.6-4.4-11.3-4.7-12.4L79 165.2l.3 29.7z"/><path fill="#fff" d="M79 160.3c.3.4 2.7 25.5 17.8 23.8 15.1-1.7 11.2-32.9 4.4-39.8-6.7-6.9-20.5-.7-20.5-.7l-4.5 10.9 2.8 5.8z"/><path fill="#060405" d="M95.4 184.7c-8.3 0-14.2-8.2-16.7-23.4-.1-.4-.1-.6-.1-.7l-2.9-6.1 4.7-11.3.2-.1c.6-.3 14.2-6.3 21.1.8 5 5.2 8.2 22.1 4.6 32.4-1.8 5-5 7.8-9.3 8.3-.6 0-1.1.1-1.6.1zm-15.9-24.6c.1.1.1.3.2 1 2.6 15.7 8.5 23.5 17.1 22.5 4-.4 6.8-3 8.5-7.7 3.5-9.8.4-26.5-4.3-31.3-6-6.2-18.2-1.4-19.8-.7l-4.4 10.5 2.7 5.7z"/><ellipse cx="91.6" cy="160.5" fill="#060405" rx="1.1" ry="1.5" transform="rotate(-2.204 91.597 160.518) scale(1.00004)"/><ellipse cx="101.6" cy="160.4" fill="#060405" rx="1.1" ry="1.5" transform="rotate(-2.204 101.587 160.434) scale(1.00004)"/><path fill="#060405" d="m96.7 170-.6-.8c.4-.3.9-.4 1.4-.4.3 0 .5-.2.5-.3 0-.2-.2-.4-.4-.6-1.6-1.6-2.2-4-1.7-6.2l1 .2c-.4 1.8.1 3.9 1.4 5.2.3.4.8.9.7 1.5-.1.6-.6 1-1.4 1.1-.5.2-.8.2-.9.3zM93.6 177.5c-.8-.4-1.5-1.1-1.8-1.9l.9-.4c.2.6.7 1.1 1.3 1.3.6.3 1.3.3 1.9 0l.4.9c-.9.5-1.9.5-2.7.1z"/><path fill="#060405" d="M110 148.4c-.6.4-1.3.7-2 1-5.9 2-22-1.7-22.5.6-.5 2.2-1.5 15.7-2.5 14.1-2-3.1-2.7-8.3-2.8.7.1 3.3-.9 16.1-.9 16.1-.6-1.6-3.5-4.8-5.5-8.2-3.5-6-1.5-21.9-1.5-21.9s-4.1-3.5-2.5-7.1c1.6-3.6 27.4-18.2 32.7-17.6 5.1.6 2.3 8.8 2.1 9.5.4-.5 4.3-5.1 5.9-1.9 1.4 2.9 3.9 11.9-.5 14.7z"/><path fill="#060405" d="M126 213.7h1v17.6h-1z" transform="rotate(-4.531 126.463 222.51)"/><path fill="#060405" d="M132.7 277.4H118c-1.3 0-2.4-1.2-2.2-2.5l3.5-25.3c.2-1.1 1.1-1.9 2.2-1.9h14.7c1.3 0 2.4 1.2 2.2 2.5l-3.5 25.3c-.2 1.1-1.1 1.9-2.2 1.9z"/><path fill="#060405" d="M132.7 277.9H118c-1.6 0-2.9-1.4-2.7-3.1l3.5-25.3c.2-1.3 1.3-2.3 2.7-2.3h14.7c1.6 0 2.9 1.5 2.7 3.1l-3.5 25.3c-.2 1.3-1.3 2.3-2.7 2.3zm-11.1-29.7c-.8 0-1.6.6-1.7 1.5l-3.5 25.3c-.1 1 .6 1.9 1.7 1.9h14.7c.8 0 1.6-.6 1.7-1.5l3.5-25.3c.1-1-.6-1.9-1.7-1.9h-14.7z"/><path fill="#fff" d="M130.8 264.5c-1.1 10.3-15.4 9-15.4 9s-44.4 14.4-60.6 5.1c-7.7-4.4-7.2-34.7-7.2-34.7l23.9-4.3 3 15.1 37.9 7.9s3.4-7.4 5-6.2c1.5 1.1.2 4.2 0 4.5.6-.3 14.6-6.5 13.4 3.6z"/><path fill="#060405" d="M70.8 282.3c-6.4 0-12.2-.9-16.2-3.2-7.9-4.5-7.5-33.9-7.5-35.2v-.4l24.8-4.4 3 15.2 37.2 7.7c.7-1.5 2.9-5.8 4.6-6.2.4-.1.7 0 1 .2.5.3.8.9.9 1.5.1.8-.1 1.7-.3 2.4 2.8-1.1 8.3-2.7 11.2-.6 1.4 1 2 2.8 1.7 5.3-1.1 10.2-14.5 9.6-15.8 9.5-2 .6-25.9 8.2-44.6 8.2zm-22.7-38c0 3.6.1 29.9 7 33.9 15.8 9.1 59.8-5 60.2-5.1h.2c.1 0 13.8 1.2 14.9-8.6.2-2.1-.2-3.6-1.3-4.4-2.3-1.7-7.3-.5-11.3 1.2l-1.7.7 1.1-1.5c.2-.4 1.3-3 .1-3.7h-.2c-1 .3-3 3.7-4.1 6.1l-.2.4-38.7-8-3-14.9-23 3.9z"/><path fill="#efc102" d="M75.2 241.6c-.2 4.4-29.6 8.7-29.4 4.3 0-6.2 1-15 1.6-19.9 1.5-11.3 8.4-18.3 8.4-18.3s12.1 2.8 16.3 14.5c2.2 5.6 3.6 11.2 3.1 19.4z"/><path fill="#060405" d="M51.6 248.1H50c-1.4-.1-2.5-.3-3.2-.5-1.2-.5-1.5-1.1-1.4-1.6l1 .1c0 .3.4.5.8.7.7.2 1.6.4 2.9.5 8.6.5 24.6-3.1 24.7-5.5.4-8-.9-13.5-2.9-19.2l.9-.3c1.8 5 3.5 10.9 3 19.6-.3 3.3-15.9 6.2-24.2 6.2z"/><path fill="#fff" d="M347.1 123.9h90.3c6.3 0 11.4 5.1 11.4 11.4 0 6.3-5.1 11.4-11.4 11.4h-90.3v-22.8z"/><path fill="#060405" d="M437.4 147.2h-90.8v-23.8h90.8c6.6 0 11.9 5.3 11.9 11.9s-5.3 11.9-11.9 11.9zm-89.8-1h89.8c6 0 10.9-4.9 10.9-10.9s-4.9-10.9-10.9-10.9h-89.8v21.8z"/><path fill="#fff" d="M434.3 148.8h-65.9c-.2-.7-.3-1.4-.4-2.1-1.4-7.9-.2-15.9 3-22.8.3-.7.7-1.4 1.1-2.1h58.6c.4.7.7 1.4 1.1 2.1.6 1.2 1.1 2.5 1.5 3.9 2.2 6.7 2.6 13.9 1 21z"/><path fill="#060405" d="M434.7 149.3H368l-.1-.4c-.2-.7-.3-1.3-.4-2.1-1.3-7.8-.2-16 3.1-23.1.4-.8.7-1.5 1.1-2.1l.1-.3h59.1l.1.3c.4.6.7 1.3 1.1 2.1.6 1.2 1.1 2.5 1.6 3.9 2.1 6.2 2.6 12.8 1.5 19.2-.3 1.3-.5 2.2-.5 2.5zm-66-1h65.1c.1-.6.2-1.1.3-1.7 1.1-6.2.6-12.7-1.5-18.7-.5-1.3-1-2.6-1.5-3.8-.3-.7-.6-1.3-.9-1.8h-58l-.9 1.8c-3.2 6.9-4.3 14.9-3 22.5.2.6.3 1.2.4 1.7zM330 135.3c0 3.9 1.6 7.4 4.1 10 2.5 2.5 6.1 4.1 9.9 4.1 7.8 0 14.1-6.3 14.1-14.1 0-3.9-1.6-7.4-4.1-9.9-2.5-2.5-6.1-4.1-10-4.1-3.9 0-7.4 1.6-9.9 4.1-2.5 2.5-4.1 6-4.1 9.9z"/><path fill="#fff" d="M338.8 138.3c-2.3-2.3-2.3-6 0-8.2 2.3-2.3 6-2.3 8.2 0 2.3 2.3 2.3 6 0 8.2-1.1 1.1-2.6 1.7-4.1 1.7-1.4 0-2.9-.6-4.1-1.7zm2.2-6.1c-1.1 1.1-1.1 2.9 0 4s2.9 1.1 4 0 1.1-2.9 0-4c-.6-.6-1.3-.8-2-.8-.8-.1-1.5.2-2 .8z"/><path fill="#fff" d="M349.5 142.2c.4 0 .8-.1 1.1-.4.6-.6.6-1.5 0-2.1l-3.5-3.5c-.6-.6-1.5-.6-2.1 0-.6.6-.6 1.5 0 2.1l3.5 3.5c.2.2.6.4 1 .4z"/><path fill="#060405" d="M384.6 129.4c-.2.2-.3.4-.3.7v7.3c0 .9-.2 1.5-.5 1.8-.3.3-.7.4-1.3.4-.5 0-1-.1-1.4-.3-.3-.2-.8-.1-1.1.2-.2.2-.2.4-.2.6 0 .4.2.7.5.8.7.4 1.5.6 2.4.6 1.1 0 2-.3 2.7-1 .7-.7 1.1-1.8 1.1-3.3V130c0-.3-.1-.5-.3-.7-.5-.3-1.2-.3-1.6.1zM398.9 129.8c-.9-.5-2-.8-3.2-.8-1.2 0-2.3.3-3.2.8-.9.5-1.6 1.3-2.1 2.2-.5.9-.8 2-.8 3.2 0 1.2.3 2.3.8 3.2.5.9 1.2 1.7 2.1 2.2.9.5 2 .8 3.2.8s2.3-.3 3.2-.8c.9-.5 1.6-1.3 2.1-2.2.5-.9.8-2 .8-3.2 0-1.2-.3-2.3-.8-3.2-.4-.9-1.1-1.7-2.1-2.2zm-3.2 9.8c-.9 0-1.6-.2-2.2-.6-.6-.4-1.1-.9-1.4-1.5-.3-.7-.5-1.4-.5-2.2s.2-1.6.5-2.2c.3-.6.8-1.2 1.4-1.5.6-.4 1.3-.6 2.2-.6.8 0 1.6.2 2.2.6.6.4 1.1.9 1.4 1.5.3.7.5 1.4.5 2.2s-.2 1.6-.5 2.2c-.3.6-.8 1.2-1.4 1.5-.6.4-1.3.6-2.2.6zM414.1 135.9c-.3-.4-.8-.7-1.2-.9.3-.2.6-.5.8-.8.3-.5.5-1.1.5-1.8 0-1-.4-1.8-1.1-2.4-.7-.6-1.7-.9-2.9-.9h-4c-.3 0-.5.1-.7.3-.2.2-.3.4-.3.7v10.2c0 .3.1.5.3.7.2.2.4.3.7.3h4.1c1.5 0 2.7-.3 3.4-.9.8-.6 1.1-1.5 1.1-2.6 0-.7-.2-1.4-.7-1.9zm-1.3 1.9c0 .5-.2.9-.6 1.2-.4.3-1.1.5-2.1.5h-2.9v-3.3h2.9c2.7-.1 2.7 1.2 2.7 1.6zm-5.6-3.6v-3.1h2.8c.7 0 1.2.1 1.6.4.4.3.5.6.5 1 0 .5-.2.9-.5 1.2-.4.3-1 .4-1.9.4h-2.5z"/><path fill="#262626" d="m418 168.6 14 39.7c1 2.9-.4 6-3.3 7s-6-.4-7-3.3l-14-39.7 10.3-3.7z"/><path fill="#262626" d="m421.5 175.3-12.2 4.4c-.8.3-1.7-.1-1.9-.9l-2.6-7.1c-.3-.8.1-1.7.9-1.9l12.2-4.4c.8-.3 1.7.1 1.9.9l2.6 7.1c.3.7-.1 1.6-.9 1.9z"/><path fill="#6193f6" d="M435.4 125.9c-.5-1.3-1-2.6-1.7-3.9-.4-.7-.7-1.4-1.1-2.1-8.7-14.9-27.1-21.9-43.9-15.9-8.3 3-14.9 8.8-19 15.9l-1.2 2.1c-3.5 6.9-4.7 14.9-3.3 22.8.1.7.3 1.4.5 2.1.3 1.3.7 2.5 1.1 3.8 6.9 18.9 27.8 28.7 46.7 21.8 19-6.8 28.8-27.7 21.9-46.6zm-25.2 37.2c-13.7 5-28.8-2.1-33.8-15.8 0-.1-.1-.2-.1-.4-.2-.7-.5-1.4-.6-2.1-2.1-8.1-.1-16.5 4.8-22.8l1.8-2.1c2.7-2.8 6-5 9.9-6.4 10.1-3.6 20.9-.8 27.9 6.4.6.7 1.3 1.4 1.8 2.1 1.7 2.1 3.1 4.6 4 7.3 1.9 5.2 2 10.6.8 15.5l-.6 2.1c-2.5 7.3-8.2 13.4-15.9 16.2z"/><path fill="#4379d1" d="M427.9 128.6c-5.4-14.8-21.7-22.4-36.4-17-14.8 5.4-22.4 21.7-17 36.5 5.4 14.8 21.7 22.4 36.5 17 14.6-5.4 22.3-21.7 16.9-36.5zm-17.7 34.5c-13.7 5-28.8-2.1-33.8-15.8-5-13.7 2.1-28.8 15.8-33.8 13.7-5 28.8 2.1 33.8 15.8 4.9 13.7-2.1 28.9-15.8 33.8z"/><path fill="#fff" d="M410.2 163.1c-.2.1-.3.1-.5.2s-.4.1-.5.2c-1.3.4-2.6.7-3.9.9h-.3c-2.3.3-4.7.4-7 .1h-.1c-4.9-.6-9.6-2.6-13.4-5.8-.2-.2-.5-.4-.7-.6-1.3-1.1-2.4-2.4-3.5-3.7-.3-.4-.6-.7-.8-1.1-1-1.4-1.8-3-2.5-4.6-.2-.4-.3-.8-.5-1.3-.1-.2-.1-.4-.2-.6-4.5-13.5 2.5-28.3 16-33.2 2.1-.8 4.3-1.2 6.4-1.5.7-.1 1.3-.1 2-.1 9.1-.2 18.1 4.5 23.1 12.7 0 0 0 .1.1.1.9 1.4 1.6 3 2.2 4.6l.6 1.8c0 .1 0 .2.1.3.4 1.3.6 2.6.8 3.9 0 .2 0 .4.1.6.9 11.5-6 22.9-17.5 27.1z" opacity=".25"/><path fill="#fff" d="M517 191.7s2.7-7.4 3.2-13.7c0 0-5.4 1.8-7.7-2.7-2-3.9 8.4-39.7 15.6-39.6s12.6 24.2 12.6 24.2l-6.3 19.5s-.5 8.7 3.6 12.9-11.5 3.9-11.5 3.9l-9.5-4.5z"/><path fill="#060405" d="M526.5 196.7c-14-6.5-9.1-4.2-10.2-4.7l.2-.4c0-.1 2.5-6.9 3.1-12.9-1.6.3-5.6.7-7.5-3.1-1.7-3.4 4.5-26 10.5-35.6 2-3.2 3.8-4.7 5.4-4.7 7.4.1 12.8 23.6 13.1 24.6v.2l-6.3 19.4c0 .8-.3 8.7 3.5 12.5.8.8 1 1.5.7 2.2-1 2.5-9.8 2.5-12.5 2.5zm.1-1c4.4.1 10.9-.4 11.5-1.9.2-.4-.2-.8-.5-1.1-4.3-4.3-3.8-13-3.8-13.3v-.1L540 160c-1.5-6.7-6.6-23.6-12.1-23.7-1.3 0-2.9 1.5-4.6 4.2-6 9.5-11.9 31.8-10.5 34.6 2 4.1 6.8 2.5 7 2.5l.7-.2v.7c-.4 5.4-2.4 11.7-3 13.4l9.1 4.2z"/><path fill="#060405" d="M520 152.4c.6 0 1.4-.8 1.8-1.8.4-1 .3-1.8-.3-1.8s-1.4.8-1.8 1.8c-.4.9-.3 1.8.3 1.8zM515.9 165.9c-1 0-2-.6-2.4-1.6l.9-.4c.3.6 1 1.1 1.7 1l.1 1h-.3zM483.7 419.9c-.4-10.9.6-141.8.6-141.8l32 8.7-14.6 133.1h-18z"/><path fill="#060405" d="m535.9 420.5-18-.6c-6.8-18.8-28.7-140.7-28.7-140.7s48.4-4.5 49.1 1.1c.8 6.5-4.6 47.5-4.8 83.1 0 30.9 2.6 50.7 2.4 57.1z"/><path fill="#ff7545" d="M503.2 196.4c4.8-4.6 32.2-10.3 48 1.8 14.6 11.2-8.4 85.9-8.4 85.9-.1 6.1-61.8 4.9-61.7-1.3-.1.1 6-70.9 22.1-86.4z"/><path fill="#fff" d="M502.6 236c-.6.1-19.2 15.5-31.9 16.8-19.6 2-36.4-24.1-42.1-29.7 0 0-8.9-.6-10.7-10-1.8-9.3 11.4-2.6 11.9-2.4-.2-.3-2.9-5.1-.4-6.9 2.6-1.8 3.5 10 3.5 10l32.2 18.3 19.2-9 18.3 12.9z"/><path fill="#060405" d="M432.6 228.5c-1.8-2.1-3.2-3.8-4.2-4.9-1.3-.2-9.3-1.5-10.9-10.4-.4-2.2 0-3.8 1.1-4.7 2.4-1.8 7.6.1 10.2 1.2-.8-1.7-1.6-4.8.4-6.2.6-.4 1-.3 1.4-.2 2 .9 2.7 8.2 2.9 10.3l31.8 18.1 18.9-8.9c.2-.1.4-.1.5 0 18.9 13.4 18.6 12.7 18.4 13.3 0 .2-.1.3-.3.4-1.2.7-19.4 15.5-32 16.8-15.1 1.6-28.5-13.1-38.2-24.8zm-11.2-19.8c-.9 0-1.6.2-2.2.6-.8.6-1.1 1.9-.8 3.7 1.7 8.9 9.9 9.6 10.2 9.6.1 0 .2.1.3.1 1.1 1.1 2.6 2.8 4.4 5.1 7.6 9.1 21.7 26.1 37.3 24.5 10.1-1.1 23.3-10.6 31-16.3l-17.4-12.2-18.9 8.9c-.1.1-.3.1-.5 0l-32.2-18.3c-.1-.1-.2-.2-.3-.4-.3-3.7-1.2-9.2-2.4-9.7-.1 0-.1-.1-.4.1-2.2 1.5.5 6.2.5 6.2.1.2.1.4-.1.6-.2.2-.4.2-.6.1-1.8-1.2-5.4-2.6-7.9-2.6z"/><path fill="#ff7545" d="M504.2 195.8c-6.3 3.3-15 14.6-25.5 29.3-1.4 2.6 20.9 14 23 12.6l18.9-13"/><path d="m499.9 238 .2-1c1 .2 1.2.1 1.2.1l13.4-9.2.6.8-13.4 9.2c-.4.4-1.4.2-2 .1z"/><path fill="#060405" d="M538.3 180.7s-11.9-4.2-10.1-13.6 6.7-14 5-16.3c-1.8-2.3-4.2-.9-5.2 1.6s-1.5 6.8-1.5 6.8h-3.3s1-12.2 4-13.5c0 0-11.3-12.1-3.1-18.1 5.7-4.2 8.3 1.2 8.3 1.2s6.6-10.1 12.8-5.4c6.2 4.7.5 16.6.5 16.6s7.7.2 8.9 7.3c1.2 7-13.1 14.7-13.9 20.5-1.2 8-2.4 12.9-2.4 12.9z"/><path fill="#fe6021" d="M518 422.9v-3h18c.2 5.8.7 16.8.8 16.8h-29.2c-1.1-9.6 10.4-13.8 10.4-13.8z"/><path fill="#060405" d="M507.9 432.5c-.4 1.3-.6 2.6-.4 4.2h29.2c-.1 0-.2-1.7-.3-4.2h-28.5z"/><path fill="#fe6021" d="M483.7 422.9v-3h18c.2 5.8.7 16.8.8 16.8h-29.2c-1-9.6 10.4-13.8 10.4-13.8z"/><path fill="#060405" d="M473.7 432.5c-.4 1.3-.6 2.6-.4 4.2h29.2c-.1 0-.2-1.7-.3-4.2h-28.5z"/><path fill="#fff" d="m405.8 112.3-26.5 40.9c-1-1.4-1.8-3-2.5-4.6-.2-.4-.3-.8-.5-1.3-.1-.2-.1-.4-.2-.6l22.5-34.7c.7-.1 1.3-.1 2-.1 1.8 0 3.5.1 5.2.4zM427.4 135.8l-17.8 27.5c-.2.1-.4.1-.5.2-1.3.4-2.6.7-3.9.9l21.4-33c.4 1.3.6 2.6.8 3.9v.5zM423.7 124.6l-25.9 39.9c-4.9-.6-9.6-2.6-13.4-5.8-.2-.2-.5-.4-.7-.6l28.4-43.8c4.3 1.9 8.7 5.5 11.6 10.3z" opacity=".25"/><path fill="#6193f6" d="M151.8 381.6c-3.4 1.2-9.5 1.6-13.1-6.3s.7-22-5.7-28.3c0 0 7.6.2 14.4 6.9 6.7 6.6 15.4 23.9 4.4 27.7z"/><path fill="#6193f6" d="M172.5 363c0 .2-.1.4-.1.6-1.6 6.3-5.3 10.8-12 10-4.7-.6-12-3.5-11.7-14.9.1-2.5.7-5 1.7-7.7.1-.2.1-.4.2-.6 3.6-9.4 10.7-19.6 7.7-28 .3.1 8.8 4.8 12.9 16.3.1.2.1.4.2.5 2 6.4 3 16.3 1.1 23.8z"/><path fill="#060405" d="M160.1 355.9h1v38.2h-1z"/><path fill="#6193f6" d="M189.5 347c-2.8 2.7-3.6 7-3.8 11.6v.6c-.3 5.7.1 11.7-1.9 16-.3.7-.7 1.3-1 1.9-.1.2-.2.3-.3.5-3.7 5.5-8.8 5-11.8 4-7.9-2.8-5.6-12.5-1.2-20.2.1-.2.2-.3.3-.5 1.7-2.8 3.6-5.3 5.4-7.1 6.7-6.6 14.3-6.8 14.3-6.8z"/><path fill="#060405" d="M155.3 382h29.3v1h-29.3z" transform="rotate(-63.812 169.994 382.472)"/><path fill="#060405" d="M151.9 367.8h1v29.3h-1z" transform="rotate(-26.221 152.437 382.494)"/><path fill="#fff" d="M168 416.4h-11.8c-.7 0-1.3-.5-1.4-1.2l-4.8-20.6c-.1-.9.5-1.7 1.4-1.7l21.5.1c.9 0 1.6.8 1.4 1.7l-4.9 20.6c-.1.6-.7 1.1-1.4 1.1z"/><path fill="#060405" d="M168 416.9h-11.8c-1 0-1.8-.7-1.9-1.6l-4.8-20.6c-.2-1.3.7-2.3 1.9-2.3l21.5.1c1.2 0 2.1 1.1 1.9 2.3l-4.9 20.6c-.1.8-.9 1.5-1.9 1.5zm-16.6-23.5c-.6 0-1 .5-.9 1.1l4.8 20.6c.1.5.5.8.9.8H168c.5 0 .9-.3.9-.8l4.9-20.6c.1-.5-.3-1.1-.9-1.1h-21.5z"/><path fill="#fff" d="M185.7 358.6v.6l-2.8 1.4-.3-.5 3.1-1.5zM182.8 377.2c-.1.2-.2.3-.3.5l-1.2-1.5.4-.4 1.1 1.4zM153.7 353.3l-.4.4-3-2.7c.1-.2.1-.4.2-.6l3.2 2.9zM172.5 363c0 .2-.1.4-.1.6-.5-.4-1.4-1-3-2.2.1-.2.2-.3.3-.5 1.1.8 2.1 1.6 2.8 2.1z"/><path fill="#060405" d="M169.9 138.2c-7.6 2.4-15.6 1.2-21.8-2.8l3.9-5.3-.9-.7-.9-.7-3.9 5.3c-4-3.1-7.2-7.4-8.9-12.6-4.4-13.6 3.2-28.2 16.8-32.6 13.6-4.4 28.2 3.2 32.6 16.8 4.2 13.6-3.3 28.2-16.9 32.6z"/><path fill="#060405" d="m135.5 145.1 1.6 1.1 13.5-18.2-1.5-1.1z"/><path fill="#fff" d="M170.3 123.5h-19.7c-1.4 0-2.5-1.1-2.5-2.5v-13c0-1.4 1.1-2.5 2.5-2.5h19.7c1.4 0 2.5 1.1 2.5 2.5v13c0 1.4-1.1 2.5-2.5 2.5zm-19.7-16c-.3 0-.5.2-.5.5v13c0 .3.2.5.5.5h19.7c.3 0 .5-.2.5-.5v-13c0-.3-.2-.5-.5-.5h-19.7z"/><path fill="#fff" d="m158.9 116.3-9.9-8.6 1.3-1.5 9.9 8.6c.1.1.4.1.5 0l9.9-8.6 1.3 1.5-9.9 8.6c-.9.8-2.2.8-3.1 0z"/><circle cx="171.3" cy="106.8" r="3.6" fill="#fff"/><path fill="#c6e2fa" d="M464.9 333.1h-36.5c-.2 0-.4-.2-.4-.4s.2-.4.4-.4h36.5c.2 0 .4.2.4.4s-.2.4-.4.4zM464.9 351.1h-36.5c-.2 0-.4-.2-.4-.4s.2-.4.4-.4h36.5c.2 0 .4.2.4.4s-.2.4-.4.4zM458.3 342.1h-51.6c-.2 0-.4-.2-.4-.4s.2-.4.4-.4h51.6c.2 0 .4.2.4.4s-.2.4-.4.4z"/><path fill="#c6e2fa" d="M435.9 333.1c-.2 0-.4-.2-.4-.4V325c0-.2.2-.4.4-.4s.4.2.4.4v7.7c0 .2-.1.4-.4.4zM448.8 342.1c-.2 0-.4-.2-.4-.4v-9c0-.2.2-.4.4-.4s.4.2.4.4v9c-.1.2-.2.4-.4.4zM439 350.8c-.2 0-.4-.2-.4-.4v-8.7c0-.2.2-.4.4-.4s.4.2.4.4v8.7c0 .3-.2.4-.4.4zM489.3 167.7c-38-.2-36.8.4-36.8-.4 0-.2.2-.4.4-.4h36.5c.2 0 .4.2.4.4s-.3.4-.5.4zM489.3 185.8h-36.5c-.2 0-.4-.2-.4-.4s.2-.4.4-.4h36.5c.2 0 .4.2.4.4s-.2.4-.4.4zM482.7 176.8h-51.6c-.2 0-.4-.2-.4-.4s.2-.4.4-.4h51.6c.2 0 .4.2.4.4s-.2.4-.4.4z"/><path fill="#c6e2fa" d="M460.4 167.7c-.2 0-.4-.2-.4-.4v-7.7c0-.2.2-.4.4-.4s.4.2.4.4v7.7c-.1.2-.2.4-.4.4zM473.2 176.8c-.2 0-.4-.2-.4-.4v-9c0-.2.2-.4.4-.4s.4.2.4.4v9c0 .2-.2.4-.4.4zM463.4 185.5c-.2 0-.4-.2-.4-.4v-8.7c0-.2.2-.4.4-.4s.4.2.4.4v8.7c0 .2-.2.4-.4.4zM184.3 164.8h-36.5c-.2 0-.4-.2-.4-.4s.2-.4.4-.4h36.5c.2 0 .4.2.4.4s-.2.4-.4.4zM184.3 182.9h-36.5c-.2 0-.4-.2-.4-.4s.2-.4.4-.4h36.5c.2 0 .4.2.4.4s-.2.4-.4.4zM177.6 173.9H126c-.2 0-.4-.2-.4-.4s.2-.4.4-.4h51.6c.2 0 .4.2.4.4s-.1.4-.4.4z"/><path fill="#c6e2fa" d="M155.3 164.8c-.2 0-.4-.2-.4-.4v-7.7c0-.2.2-.4.4-.4s.4.2.4.4v7.7c0 .3-.2.4-.4.4zM168.1 173.9c-.2 0-.4-.2-.4-.4v-9c0-.2.2-.4.4-.4s.4.2.4.4v9c0 .2-.2.4-.4.4zM158.4 182.6c-.2 0-.4-.2-.4-.4v-8.7c0-.2.2-.4.4-.4s.4.2.4.4v8.7c0 .2-.2.4-.4.4zM190.2 290.6h-36.5c-.2 0-.4-.2-.4-.4s.2-.4.4-.4h36.5c.2 0 .4.2.4.4s-.2.4-.4.4zM190.2 308.7h-36.5c-.2 0-.4-.2-.4-.4s.2-.4.4-.4h36.5c.2 0 .4.2.4.4s-.2.4-.4.4zM183.6 299.6H132c-.2 0-.4-.2-.4-.4s.2-.4.4-.4h51.6c.2 0 .4.2.4.4s-.2.4-.4.4z"/><path fill="#c6e2fa" d="M161.2 290.6c-.2 0-.4-.2-.4-.4v-7.7c0-.2.2-.4.4-.4s.4.2.4.4v7.7c0 .2-.2.4-.4.4zM174 299.6c-.2 0-.4-.2-.4-.4v-9c0-.2.2-.4.4-.4s.4.2.4.4v9c0 .3-.1.4-.4.4zM164.3 308.4c-.2 0-.4-.2-.4-.4v-8.7c0-.2.2-.4.4-.4s.4.2.4.4v8.7c0 .2-.2.4-.4.4z"/></svg>